<svg xmlns="http://www.w3.org/2000/svg" xmlns:xlink="http://www.w3.org/1999/xlink" width="500" zoomAndPan="magnify" viewBox="0 0 375 374.999991" height="500" preserveAspectRatio="xMidYMid meet" version="1.0"><defs><g/><clipPath id="390b9d36c2"><path d="M 33.832031 53 L 340 53 L 340 311.589844 L 33.832031 311.589844 Z M 33.832031 53 " clip-rule="nonzero"/></clipPath></defs><g clip-path="url(#390b9d36c2)"><path fill="#000000" d="M 339.089844 118.269531 C 338.671875 111.03125 341.328125 102.933594 336.519531 96.632812 C 328.101562 94.3125 319.707031 91.964844 311.257812 89.890625 C 310.816406 79.417969 311.644531 68.914062 310.875 58.46875 C 309.660156 51.34375 300.992188 53.828125 295.964844 53.773438 C 252.394531 55.953125 212.25 80.632812 186.628906 115.308594 C 159.070312 77.730469 113.902344 51.835938 66.601562 53.769531 C 65.660156 54.570312 63.757812 56.171875 62.789062 56.972656 C 61.351562 67.832031 62.710938 78.917969 62.125 89.859375 C 52.550781 93.726562 38.390625 93.121094 33.832031 104.179688 C 35.625 108.542969 36.042969 113.269531 35.847656 117.96875 C 35.433594 173.398438 36.230469 228.808594 35.460938 284.21875 C 34.742188 288.394531 35.511719 295.773438 41.503906 294.476562 C 60.859375 287.429688 81.703125 284.886719 102.246094 286.074219 C 130.160156 288.257812 159.152344 294.808594 182.09375 311.554688 C 184.332031 311.554688 188.773438 311.554688 190.980469 311.582031 C 203.683594 301.824219 219.085938 296.519531 234.300781 292.125 C 266.910156 282.980469 302.113281 283.835938 334.164062 294.804688 C 341.011719 293.648438 339.160156 286.128906 339.21875 281.152344 C 338.925781 226.878906 339.175781 172.570312 339.089844 118.269531 Z M 47.5 279.464844 C 47.667969 222.230469 47.472656 164.96875 47.582031 107.738281 C 52.46875 105.996094 57.382812 104.257812 62.296875 102.542969 C 62.191406 148.25 62.214844 193.964844 62.269531 239.671875 C 61.636719 247.988281 72.019531 246.523438 77.429688 247.046875 C 109.738281 248.402344 139.140625 264.847656 162.609375 286.207031 C 126.378906 271.5625 85.132812 268.246094 47.5 279.464844 Z M 205.207031 289.140625 C 223.125 271.589844 243.777344 255.839844 268.324219 249.066406 C 280.972656 244.78125 294.359375 244.367188 307.503906 243.125 C 311.753906 242.597656 310.871094 237.296875 311.171875 234.308594 C 311.148438 190.585938 311.121094 146.871094 311.148438 103.152344 C 316.417969 104.753906 321.695312 106.355469 326.992188 107.902344 C 327.738281 165.136719 327.019531 222.398438 327.351562 279.628906 C 287.183594 268.496094 243.3125 272.472656 205.207031 289.140625 Z M 205.207031 289.140625 " fill-opacity="1" fill-rule="nonzero"/></g><g fill="#ffffff" fill-opacity="1"><g transform="translate(110.638653, 159.082729)"><g><path d="M 11.84375 -7.34375 C 14.28125 -7.34375 15.894531 -7.65625 16.6875 -8.28125 C 17.488281 -8.914062 17.890625 -9.632812 17.890625 -10.4375 C 17.890625 -11.300781 17.644531 -12.3125 17.15625 -13.46875 C 16.664062 -14.632812 16.054688 -15.851562 15.328125 -17.125 C 14.597656 -18.394531 13.832031 -19.609375 13.03125 -20.765625 C 12.238281 -21.921875 11.554688 -22.9375 10.984375 -23.8125 L 17.453125 -28.109375 C 19.804688 -24.953125 21.660156 -21.894531 23.015625 -18.9375 C 24.378906 -15.988281 25.28125 -13.585938 25.71875 -11.734375 C 26.113281 -9.992188 26.875 -8.828125 28 -8.234375 C 29.125 -7.640625 30.300781 -7.34375 31.53125 -7.34375 C 32.90625 -7.34375 33.890625 -6.988281 34.484375 -6.28125 C 35.085938 -5.570312 35.390625 -4.691406 35.390625 -3.640625 C 35.390625 -2.515625 35.015625 -1.582031 34.265625 -0.84375 C 33.523438 -0.101562 32.429688 0.265625 30.984375 0.265625 C 27.578125 0.265625 25.039062 -0.78125 23.375 -2.875 C 22.394531 -1.9375 21.015625 -1.164062 19.234375 -0.5625 C 17.460938 0.03125 15.363281 0.328125 12.9375 0.328125 C 11.269531 0.328125 9.398438 0.128906 7.328125 -0.265625 C 5.265625 -0.671875 3.457031 -1.304688 1.90625 -2.171875 L 4.5625 -9.078125 C 5.90625 -8.460938 7.203125 -8.019531 8.453125 -7.75 C 9.703125 -7.476562 10.832031 -7.34375 11.84375 -7.34375 Z M 11.84375 -7.34375 "/></g></g></g><g fill="#ffffff" fill-opacity="1"><g transform="translate(141.677584, 159.082729)"><g><path d="M 0 0.265625 L 0.546875 -7.34375 C 1.847656 -7.34375 2.96875 -7.46875 3.90625 -7.71875 C 4.851562 -7.96875 5.648438 -8.484375 6.296875 -9.265625 C 6.953125 -10.046875 7.503906 -11.195312 7.953125 -12.71875 C 8.410156 -14.238281 8.820312 -16.269531 9.1875 -18.8125 L 16.3125 -17.609375 C 16.164062 -16.773438 16 -15.78125 15.8125 -14.625 C 15.632812 -13.46875 15.546875 -12.398438 15.546875 -11.421875 C 15.546875 -10.109375 16.085938 -9.097656 17.171875 -8.390625 C 18.265625 -7.691406 20.132812 -7.34375 22.78125 -7.34375 C 24.113281 -7.34375 25.078125 -6.988281 25.671875 -6.28125 C 26.273438 -5.570312 26.578125 -4.691406 26.578125 -3.640625 C 26.578125 -2.515625 26.207031 -1.582031 25.46875 -0.84375 C 24.726562 -0.101562 23.648438 0.265625 22.234375 0.265625 C 19.691406 0.265625 17.523438 -0.0546875 15.734375 -0.703125 C 13.941406 -1.359375 12.628906 -2.519531 11.796875 -4.1875 C 10.816406 -2.882812 9.664062 -1.914062 8.34375 -1.28125 C 7.019531 -0.644531 5.640625 -0.226562 4.203125 -0.03125 C 2.773438 0.164062 1.375 0.265625 0 0.265625 Z M 15.171875 12.875 C 14.117188 12.875 13.21875 12.507812 12.46875 11.78125 C 11.726562 11.0625 11.359375 10.175781 11.359375 9.125 C 11.359375 8.070312 11.726562 7.164062 12.46875 6.40625 C 13.21875 5.644531 14.117188 5.265625 15.171875 5.265625 C 16.179688 5.265625 17.046875 5.644531 17.765625 6.40625 C 18.492188 7.164062 18.859375 8.070312 18.859375 9.125 C 18.859375 10.175781 18.492188 11.0625 17.765625 11.78125 C 17.046875 12.507812 16.179688 12.875 15.171875 12.875 Z M 5.765625 12.875 C 4.710938 12.875 3.8125 12.507812 3.0625 11.78125 C 2.320312 11.0625 1.953125 10.175781 1.953125 9.125 C 1.953125 8.070312 2.320312 7.164062 3.0625 6.40625 C 3.8125 5.644531 4.710938 5.265625 5.765625 5.265625 C 6.773438 5.265625 7.640625 5.644531 8.359375 6.40625 C 9.085938 7.164062 9.453125 8.070312 9.453125 9.125 C 9.453125 10.175781 9.085938 11.0625 8.359375 11.78125 C 7.640625 12.507812 6.773438 12.875 5.765625 12.875 Z M 5.765625 12.875 "/></g></g></g><g fill="#ffffff" fill-opacity="1"><g transform="translate(163.910373, 159.082729)"><g><path d="M 0 0.265625 L 0.546875 -7.34375 C 1.410156 -7.34375 2.085938 -7.519531 2.578125 -7.875 C 3.066406 -8.238281 3.546875 -8.863281 4.015625 -9.75 C 4.492188 -10.644531 5.148438 -11.890625 5.984375 -13.484375 C 7.796875 -16.921875 9.722656 -19.3125 11.765625 -20.65625 C 13.816406 -22 15.800781 -22.671875 17.71875 -22.671875 C 19.71875 -22.671875 21.554688 -22.007812 23.234375 -20.6875 C 24.921875 -19.363281 26.507812 -16.925781 28 -13.375 C 29.050781 -10.90625 30.097656 -9.28125 31.140625 -8.5 C 32.191406 -7.726562 33.300781 -7.34375 34.46875 -7.34375 C 35.84375 -7.34375 36.816406 -6.988281 37.390625 -6.28125 C 37.972656 -5.570312 38.265625 -4.691406 38.265625 -3.640625 C 38.265625 -2.515625 37.882812 -1.582031 37.125 -0.84375 C 36.363281 -0.101562 35.296875 0.265625 33.921875 0.265625 C 32.328125 0.265625 30.859375 0.03125 29.515625 -0.4375 C 28.171875 -0.90625 27.066406 -1.59375 26.203125 -2.5 C 25.585938 -1.59375 24.742188 -0.785156 23.671875 -0.078125 C 22.597656 0.628906 21.300781 0.984375 19.78125 0.984375 C 18.875 0.984375 17.8125 0.8125 16.59375 0.46875 C 15.382812 0.125 14.132812 -0.453125 12.84375 -1.265625 C 11.5625 -2.085938 10.378906 -3.207031 9.296875 -4.625 C 8.242188 -2.695312 7.03125 -1.398438 5.65625 -0.734375 C 4.28125 -0.0664062 2.394531 0.265625 0 0.265625 Z M 12.453125 -11.03125 C 13.140625 -9.90625 14.132812 -8.878906 15.4375 -7.953125 C 16.738281 -7.035156 18.097656 -6.578125 19.515625 -6.578125 C 20.242188 -6.578125 20.84375 -6.859375 21.3125 -7.421875 C 21.78125 -7.984375 21.796875 -8.828125 21.359375 -9.953125 C 21.109375 -10.566406 20.753906 -11.289062 20.296875 -12.125 C 19.847656 -12.957031 19.34375 -13.671875 18.78125 -14.265625 C 18.21875 -14.867188 17.609375 -15.171875 16.953125 -15.171875 C 16.234375 -15.171875 15.492188 -14.84375 14.734375 -14.1875 C 13.972656 -13.53125 13.210938 -12.476562 12.453125 -11.03125 Z M 12.453125 -11.03125 "/></g></g></g><g fill="#ffffff" fill-opacity="1"><g transform="translate(197.830334, 159.082729)"><g><path d="M 0 0.265625 L 0.546875 -7.34375 C 4.460938 -7.34375 8.265625 -7.773438 11.953125 -8.640625 C 15.648438 -9.515625 18.929688 -10.910156 21.796875 -12.828125 C 20.128906 -13.804688 18.289062 -14.566406 16.28125 -15.109375 C 14.269531 -15.648438 12.066406 -15.921875 9.671875 -15.921875 C 8.765625 -15.921875 7.832031 -15.875 6.875 -15.78125 C 5.914062 -15.695312 4.945312 -15.546875 3.96875 -15.328125 L 2.875 -22.78125 C 3.925781 -23.03125 5.03125 -23.226562 6.1875 -23.375 C 7.351562 -23.519531 8.40625 -23.59375 9.34375 -23.59375 C 11.8125 -23.59375 14.023438 -23.265625 15.984375 -22.609375 C 17.941406 -21.960938 19.722656 -21.203125 21.328125 -20.328125 C 22.941406 -19.460938 24.445312 -18.703125 25.84375 -18.046875 C 27.238281 -17.390625 28.609375 -17.0625 29.953125 -17.0625 L 31.96875 -17.0625 L 32.828125 -9.84375 C 32.035156 -9.800781 31.273438 -9.6875 30.546875 -9.5 C 29.828125 -9.320312 29.125 -9.109375 28.4375 -8.859375 C 29.332031 -8.273438 30.414062 -7.875 31.6875 -7.65625 C 32.957031 -7.445312 34.425781 -7.34375 36.09375 -7.34375 C 37.46875 -7.34375 38.445312 -6.988281 39.03125 -6.28125 C 39.613281 -5.570312 39.90625 -4.691406 39.90625 -3.640625 C 39.90625 -2.515625 39.53125 -1.582031 38.78125 -0.84375 C 38.039062 -0.101562 36.960938 0.265625 35.546875 0.265625 C 32.648438 0.265625 30.097656 -0.148438 27.890625 -0.984375 C 25.679688 -1.816406 23.90625 -3.445312 22.5625 -5.875 C 20.894531 -4.925781 19.054688 -3.976562 17.046875 -3.03125 C 15.035156 -2.09375 12.648438 -1.304688 9.890625 -0.671875 C 7.140625 -0.046875 3.84375 0.265625 0 0.265625 Z M 0 0.265625 "/></g></g></g><g fill="#ffffff" fill-opacity="1"><g transform="translate(233.381053, 159.082729)"><g><path d="M 0 0.265625 L 0.546875 -7.34375 C 2.210938 -7.34375 3.40625 -7.515625 4.125 -7.859375 C 4.851562 -8.203125 5.289062 -8.851562 5.4375 -9.8125 C 5.582031 -10.769531 5.617188 -12.175781 5.546875 -14.03125 L 4.5625 -39.796875 L 12.234375 -39.796875 L 13.3125 -13.484375 C 13.382812 -11.378906 13.300781 -9.484375 13.0625 -7.796875 C 12.832031 -6.109375 12.273438 -4.664062 11.390625 -3.46875 C 10.503906 -2.28125 9.144531 -1.359375 7.3125 -0.703125 C 5.476562 -0.0546875 3.039062 0.265625 0 0.265625 Z M 0 0.265625 "/></g></g></g><g fill="#ffffff" fill-opacity="1"><g transform="translate(249.52565, 159.082729)"><g><path d="M 4.34375 0 L 3.203125 -39.796875 L 10.8125 -39.796875 L 11.953125 0 Z M 4.34375 0 "/></g></g></g><g fill="#ffffff" fill-opacity="1"><g transform="translate(127.67717, 239.924795)"><g><path d="M 6.65625 0 L 2.640625 0 L 2.640625 -20.296875 L 6.65625 -20.296875 Z M 6.65625 0 "/></g></g></g><g fill="#ffffff" fill-opacity="1"><g transform="translate(136.977897, 239.924795)"><g><path d="M 2.203125 0 L 2.203125 -15.3125 L 5.90625 -15.3125 L 5.90625 -13.0625 L 6.1875 -13 C 7.144531 -14.738281 8.691406 -15.609375 10.828125 -15.609375 C 12.597656 -15.609375 13.894531 -15.125 14.71875 -14.15625 C 15.550781 -13.195312 15.96875 -11.796875 15.96875 -9.953125 L 15.96875 0 L 12.125 0 L 12.125 -9.484375 C 12.125 -10.503906 11.921875 -11.238281 11.515625 -11.6875 C 11.109375 -12.132812 10.453125 -12.359375 9.546875 -12.359375 C 8.453125 -12.359375 7.59375 -12 6.96875 -11.28125 C 6.351562 -10.570312 6.046875 -9.453125 6.046875 -7.921875 L 6.046875 0 Z M 2.203125 0 "/></g></g></g><g fill="#ffffff" fill-opacity="1"><g transform="translate(154.913031, 239.924795)"><g><path d="M 7.171875 0.296875 C 6.117188 0.296875 5.15625 0.175781 4.28125 -0.0625 C 3.414062 -0.3125 2.675781 -0.648438 2.0625 -1.078125 C 1.445312 -1.515625 0.988281 -2.007812 0.6875 -2.5625 L 2.828125 -4.875 L 3.125 -4.875 C 3.632812 -4.1875 4.234375 -3.671875 4.921875 -3.328125 C 5.617188 -2.984375 6.375 -2.8125 7.1875 -2.8125 C 7.9375 -2.8125 8.5 -2.945312 8.875 -3.21875 C 9.257812 -3.488281 9.453125 -3.875 9.453125 -4.375 C 9.453125 -4.757812 9.316406 -5.082031 9.046875 -5.34375 C 8.773438 -5.613281 8.332031 -5.820312 7.71875 -5.96875 L 5.6875 -6.453125 C 4.175781 -6.816406 3.066406 -7.367188 2.359375 -8.109375 C 1.660156 -8.859375 1.3125 -9.804688 1.3125 -10.953125 C 1.3125 -11.910156 1.554688 -12.738281 2.046875 -13.4375 C 2.535156 -14.144531 3.21875 -14.679688 4.09375 -15.046875 C 4.976562 -15.421875 6.007812 -15.609375 7.1875 -15.609375 C 8.570312 -15.609375 9.71875 -15.40625 10.625 -15 C 11.53125 -14.601562 12.238281 -14.070312 12.75 -13.40625 L 10.6875 -11.1875 L 10.421875 -11.1875 C 9.992188 -11.664062 9.507812 -12.015625 8.96875 -12.234375 C 8.4375 -12.460938 7.84375 -12.578125 7.1875 -12.578125 C 5.675781 -12.578125 4.921875 -12.101562 4.921875 -11.15625 C 4.921875 -10.757812 5.0625 -10.4375 5.34375 -10.1875 C 5.625 -9.9375 6.117188 -9.734375 6.828125 -9.578125 L 8.71875 -9.171875 C 10.269531 -8.835938 11.40625 -8.300781 12.125 -7.5625 C 12.84375 -6.820312 13.203125 -5.832031 13.203125 -4.59375 C 13.203125 -3.625 12.960938 -2.769531 12.484375 -2.03125 C 12.003906 -1.289062 11.3125 -0.71875 10.40625 -0.3125 C 9.5 0.09375 8.421875 0.296875 7.171875 0.296875 Z M 7.171875 0.296875 "/></g></g></g><g fill="#ffffff" fill-opacity="1"><g transform="translate(169.030702, 239.924795)"><g><path d="M 10.5625 -3.65625 L 11.5625 -0.8125 C 11.144531 -0.46875 10.617188 -0.195312 9.984375 0 C 9.359375 0.195312 8.648438 0.296875 7.859375 0.296875 C 6.203125 0.296875 4.941406 -0.15625 4.078125 -1.0625 C 3.222656 -1.96875 2.796875 -3.28125 2.796875 -5 L 2.796875 -12.28125 L 0.453125 -12.28125 L 0.453125 -15.328125 L 2.796875 -15.328125 L 2.796875 -18.3125 L 6.640625 -18.9375 L 6.640625 -15.328125 L 10.984375 -15.328125 L 10.984375 -12.28125 L 6.640625 -12.28125 L 6.640625 -5.28125 C 6.640625 -4.519531 6.796875 -3.960938 7.109375 -3.609375 C 7.421875 -3.265625 7.878906 -3.09375 8.484375 -3.09375 C 9.171875 -3.09375 9.769531 -3.28125 10.28125 -3.65625 Z M 10.5625 -3.65625 "/></g></g></g><g fill="#ffffff" fill-opacity="1"><g transform="translate(180.927304, 239.924795)"><g><path d="M 4.125 -17.15625 C 3.425781 -17.15625 2.859375 -17.363281 2.421875 -17.78125 C 1.992188 -18.195312 1.78125 -18.738281 1.78125 -19.40625 C 1.78125 -20.0625 1.992188 -20.597656 2.421875 -21.015625 C 2.859375 -21.441406 3.425781 -21.65625 4.125 -21.65625 C 4.582031 -21.65625 4.992188 -21.554688 5.359375 -21.359375 C 5.722656 -21.171875 6.003906 -20.90625 6.203125 -20.5625 C 6.398438 -20.226562 6.5 -19.84375 6.5 -19.40625 C 6.5 -18.976562 6.398438 -18.59375 6.203125 -18.25 C 6.003906 -17.90625 5.722656 -17.632812 5.359375 -17.4375 C 4.992188 -17.25 4.582031 -17.15625 4.125 -17.15625 Z M 2.203125 0 L 2.203125 -15.3125 L 6.046875 -15.3125 L 6.046875 0 Z M 2.203125 0 "/></g></g></g><g fill="#ffffff" fill-opacity="1"><g transform="translate(189.173023, 239.924795)"><g><path d="M 10.5625 -3.65625 L 11.5625 -0.8125 C 11.144531 -0.46875 10.617188 -0.195312 9.984375 0 C 9.359375 0.195312 8.648438 0.296875 7.859375 0.296875 C 6.203125 0.296875 4.941406 -0.15625 4.078125 -1.0625 C 3.222656 -1.96875 2.796875 -3.28125 2.796875 -5 L 2.796875 -12.28125 L 0.453125 -12.28125 L 0.453125 -15.328125 L 2.796875 -15.328125 L 2.796875 -18.3125 L 6.640625 -18.9375 L 6.640625 -15.328125 L 10.984375 -15.328125 L 10.984375 -12.28125 L 6.640625 -12.28125 L 6.640625 -5.28125 C 6.640625 -4.519531 6.796875 -3.960938 7.109375 -3.609375 C 7.421875 -3.265625 7.878906 -3.09375 8.484375 -3.09375 C 9.171875 -3.09375 9.769531 -3.28125 10.28125 -3.65625 Z M 10.5625 -3.65625 "/></g></g></g><g fill="#ffffff" fill-opacity="1"><g transform="translate(201.069625, 239.924795)"><g><path d="M 7.015625 0.296875 C 5.285156 0.296875 4.007812 -0.171875 3.1875 -1.109375 C 2.375 -2.054688 1.96875 -3.410156 1.96875 -5.171875 L 1.96875 -15.3125 L 5.8125 -15.3125 L 5.8125 -5.65625 C 5.8125 -4.71875 6.015625 -4.03125 6.421875 -3.59375 C 6.828125 -3.164062 7.453125 -2.953125 8.296875 -2.953125 C 9.359375 -2.953125 10.179688 -3.300781 10.765625 -4 C 11.359375 -4.695312 11.65625 -5.796875 11.65625 -7.296875 L 11.65625 -15.3125 L 15.515625 -15.3125 L 15.515625 0 L 11.8125 0 L 11.8125 -2.25 L 11.53125 -2.3125 C 11.03125 -1.4375 10.425781 -0.78125 9.71875 -0.34375 C 9.019531 0.0820312 8.117188 0.296875 7.015625 0.296875 Z M 7.015625 0.296875 "/></g></g></g><g fill="#ffffff" fill-opacity="1"><g transform="translate(218.782652, 239.924795)"><g><path d="M 10.5625 -3.65625 L 11.5625 -0.8125 C 11.144531 -0.46875 10.617188 -0.195312 9.984375 0 C 9.359375 0.195312 8.648438 0.296875 7.859375 0.296875 C 6.203125 0.296875 4.941406 -0.15625 4.078125 -1.0625 C 3.222656 -1.96875 2.796875 -3.28125 2.796875 -5 L 2.796875 -12.28125 L 0.453125 -12.28125 L 0.453125 -15.328125 L 2.796875 -15.328125 L 2.796875 -18.3125 L 6.640625 -18.9375 L 6.640625 -15.328125 L 10.984375 -15.328125 L 10.984375 -12.28125 L 6.640625 -12.28125 L 6.640625 -5.28125 C 6.640625 -4.519531 6.796875 -3.960938 7.109375 -3.609375 C 7.421875 -3.265625 7.878906 -3.09375 8.484375 -3.09375 C 9.171875 -3.09375 9.769531 -3.28125 10.28125 -3.65625 Z M 10.5625 -3.65625 "/></g></g></g><g fill="#ffffff" fill-opacity="1"><g transform="translate(230.679254, 239.924795)"><g><path d="M 15.140625 -6.796875 L 5.296875 -6.796875 C 5.398438 -5.460938 5.773438 -4.488281 6.421875 -3.875 C 7.078125 -3.269531 7.960938 -2.96875 9.078125 -2.96875 C 9.960938 -2.96875 10.675781 -3.128906 11.21875 -3.453125 C 11.757812 -3.785156 12.195312 -4.285156 12.53125 -4.953125 L 12.828125 -4.953125 L 15.390625 -3.3125 C 14.890625 -2.238281 14.132812 -1.367188 13.125 -0.703125 C 12.113281 -0.0351562 10.765625 0.296875 9.078125 0.296875 C 7.492188 0.296875 6.125 -0.00390625 4.96875 -0.609375 C 3.820312 -1.210938 2.9375 -2.109375 2.3125 -3.296875 C 1.6875 -4.484375 1.375 -5.9375 1.375 -7.65625 C 1.375 -9.394531 1.703125 -10.859375 2.359375 -12.046875 C 3.015625 -13.242188 3.898438 -14.132812 5.015625 -14.71875 C 6.140625 -15.3125 7.398438 -15.609375 8.796875 -15.609375 C 10.960938 -15.609375 12.625 -15.03125 13.78125 -13.875 C 14.9375 -12.726562 15.515625 -11.046875 15.515625 -8.828125 C 15.515625 -8.023438 15.484375 -7.398438 15.421875 -6.953125 Z M 11.828125 -9.28125 C 11.796875 -10.445312 11.523438 -11.296875 11.015625 -11.828125 C 10.515625 -12.359375 9.773438 -12.625 8.796875 -12.625 C 6.859375 -12.625 5.71875 -11.507812 5.375 -9.28125 Z M 11.828125 -9.28125 "/></g></g></g><g fill="#ffffff" fill-opacity="1"><g transform="translate(141.795105, 206.384173)"><g><path d="M 6.140625 0 L 2.4375 0 L 2.4375 -18.765625 L 6.140625 -18.765625 Z M 6.140625 0 "/></g></g></g><g fill="#ffffff" fill-opacity="1"><g transform="translate(150.393175, 206.384173)"><g><path d="M 6.625 0.265625 C 5.65625 0.265625 4.769531 0.15625 3.96875 -0.0625 C 3.164062 -0.289062 2.476562 -0.601562 1.90625 -1 C 1.332031 -1.40625 0.910156 -1.863281 0.640625 -2.375 L 2.625 -4.5 L 2.890625 -4.5 C 3.359375 -3.863281 3.910156 -3.390625 4.546875 -3.078125 C 5.191406 -2.765625 5.890625 -2.609375 6.640625 -2.609375 C 7.335938 -2.609375 7.859375 -2.726562 8.203125 -2.96875 C 8.554688 -3.21875 8.734375 -3.578125 8.734375 -4.046875 C 8.734375 -4.398438 8.609375 -4.695312 8.359375 -4.9375 C 8.109375 -5.1875 7.703125 -5.378906 7.140625 -5.515625 L 5.265625 -5.96875 C 3.859375 -6.300781 2.832031 -6.8125 2.1875 -7.5 C 1.539062 -8.1875 1.21875 -9.0625 1.21875 -10.125 C 1.21875 -11.007812 1.441406 -11.773438 1.890625 -12.421875 C 2.335938 -13.066406 2.96875 -13.5625 3.78125 -13.90625 C 4.601562 -14.25 5.554688 -14.421875 6.640625 -14.421875 C 7.921875 -14.421875 8.976562 -14.234375 9.8125 -13.859375 C 10.65625 -13.492188 11.3125 -13.003906 11.78125 -12.390625 L 9.875 -10.34375 L 9.625 -10.34375 C 9.226562 -10.789062 8.785156 -11.113281 8.296875 -11.3125 C 7.804688 -11.519531 7.253906 -11.625 6.640625 -11.625 C 5.242188 -11.625 4.546875 -11.1875 4.546875 -10.3125 C 4.546875 -9.945312 4.675781 -9.648438 4.9375 -9.421875 C 5.195312 -9.191406 5.65625 -9.003906 6.3125 -8.859375 L 8.0625 -8.46875 C 9.5 -8.15625 10.546875 -7.660156 11.203125 -6.984375 C 11.867188 -6.304688 12.203125 -5.394531 12.203125 -4.25 C 12.203125 -3.351562 11.976562 -2.5625 11.53125 -1.875 C 11.09375 -1.1875 10.453125 -0.65625 9.609375 -0.28125 C 8.773438 0.0820312 7.78125 0.265625 6.625 0.265625 Z M 6.625 0.265625 "/></g></g></g><g fill="#ffffff" fill-opacity="1"><g transform="translate(163.444276, 206.384173)"><g><path d="M 5.875 0.265625 C 4.601562 0.265625 3.628906 -0.078125 2.953125 -0.765625 C 2.285156 -1.453125 1.953125 -2.5 1.953125 -3.90625 L 1.953125 -19.84375 L 5.5 -19.84375 L 5.5 -4.046875 C 5.5 -3.179688 5.859375 -2.75 6.578125 -2.75 C 6.785156 -2.75 7.003906 -2.78125 7.234375 -2.84375 L 7.421875 -2.796875 L 7.734375 -0.0625 C 7.535156 0.0390625 7.273438 0.117188 6.953125 0.171875 C 6.628906 0.234375 6.269531 0.265625 5.875 0.265625 Z M 5.875 0.265625 "/></g></g></g><g fill="#ffffff" fill-opacity="1"><g transform="translate(171.58036, 206.384173)"><g><path d="M 5.515625 0.265625 C 4.609375 0.265625 3.820312 0.0976562 3.15625 -0.234375 C 2.488281 -0.566406 1.972656 -1.054688 1.609375 -1.703125 C 1.253906 -2.347656 1.078125 -3.125 1.078125 -4.03125 C 1.078125 -4.863281 1.253906 -5.566406 1.609375 -6.140625 C 1.972656 -6.710938 2.53125 -7.175781 3.28125 -7.53125 C 4.039062 -7.894531 5.023438 -8.175781 6.234375 -8.375 C 7.078125 -8.507812 7.71875 -8.660156 8.15625 -8.828125 C 8.601562 -8.992188 8.90625 -9.175781 9.0625 -9.375 C 9.21875 -9.582031 9.296875 -9.84375 9.296875 -10.15625 C 9.296875 -10.613281 9.132812 -10.960938 8.8125 -11.203125 C 8.5 -11.441406 7.972656 -11.5625 7.234375 -11.5625 C 6.453125 -11.5625 5.703125 -11.382812 4.984375 -11.03125 C 4.273438 -10.6875 3.660156 -10.226562 3.140625 -9.65625 L 2.890625 -9.65625 L 1.40625 -11.890625 C 2.125 -12.691406 3 -13.3125 4.03125 -13.75 C 5.0625 -14.195312 6.191406 -14.421875 7.421875 -14.421875 C 9.296875 -14.421875 10.648438 -14.019531 11.484375 -13.21875 C 12.328125 -12.425781 12.75 -11.300781 12.75 -9.84375 L 12.75 -3.703125 C 12.75 -3.066406 13.023438 -2.75 13.578125 -2.75 C 13.785156 -2.75 13.992188 -2.785156 14.203125 -2.859375 L 14.390625 -2.8125 L 14.640625 -0.328125 C 14.441406 -0.203125 14.164062 -0.0976562 13.8125 -0.015625 C 13.46875 0.0664062 13.085938 0.109375 12.671875 0.109375 C 11.816406 0.109375 11.148438 -0.0507812 10.671875 -0.375 C 10.203125 -0.707031 9.863281 -1.21875 9.65625 -1.90625 L 9.390625 -1.9375 C 8.703125 -0.46875 7.410156 0.265625 5.515625 0.265625 Z M 6.640625 -2.390625 C 7.460938 -2.390625 8.117188 -2.664062 8.609375 -3.21875 C 9.109375 -3.769531 9.359375 -4.535156 9.359375 -5.515625 L 9.359375 -6.953125 L 9.109375 -7 C 8.898438 -6.832031 8.617188 -6.691406 8.265625 -6.578125 C 7.921875 -6.460938 7.425781 -6.347656 6.78125 -6.234375 C 6.007812 -6.109375 5.453125 -5.890625 5.109375 -5.578125 C 4.773438 -5.265625 4.609375 -4.820312 4.609375 -4.25 C 4.609375 -3.644531 4.785156 -3.179688 5.140625 -2.859375 C 5.503906 -2.546875 6.003906 -2.390625 6.640625 -2.390625 Z M 6.640625 -2.390625 "/></g></g></g><g fill="#ffffff" fill-opacity="1"><g transform="translate(186.505069, 206.384173)"><g><path d="M 2.046875 0 L 2.046875 -14.15625 L 5.453125 -14.15625 L 5.453125 -12.25 L 5.71875 -12.203125 C 6.1875 -12.960938 6.726562 -13.519531 7.34375 -13.875 C 7.96875 -14.238281 8.765625 -14.421875 9.734375 -14.421875 C 10.796875 -14.421875 11.648438 -14.207031 12.296875 -13.78125 C 12.953125 -13.363281 13.429688 -12.75 13.734375 -11.9375 L 14 -11.9375 C 14.4375 -12.78125 15 -13.40625 15.6875 -13.8125 C 16.375 -14.21875 17.234375 -14.421875 18.265625 -14.421875 C 21.191406 -14.421875 22.65625 -12.785156 22.65625 -9.515625 L 22.65625 0 L 19.109375 0 L 19.109375 -9.078125 C 19.109375 -9.898438 18.941406 -10.492188 18.609375 -10.859375 C 18.285156 -11.234375 17.765625 -11.421875 17.046875 -11.421875 C 15.097656 -11.421875 14.125 -10.113281 14.125 -7.5 L 14.125 0 L 10.578125 0 L 10.578125 -9.078125 C 10.578125 -9.898438 10.410156 -10.492188 10.078125 -10.859375 C 9.753906 -11.234375 9.234375 -11.421875 8.515625 -11.421875 C 7.597656 -11.421875 6.878906 -11.113281 6.359375 -10.5 C 5.847656 -9.894531 5.59375 -8.921875 5.59375 -7.578125 L 5.59375 0 Z M 2.046875 0 "/></g></g></g><g fill="#ffffff" fill-opacity="1"><g transform="translate(210.990319, 206.384173)"><g><path d="M 3.8125 -15.84375 C 3.164062 -15.84375 2.640625 -16.035156 2.234375 -16.421875 C 1.835938 -16.816406 1.640625 -17.320312 1.640625 -17.9375 C 1.640625 -18.539062 1.835938 -19.035156 2.234375 -19.421875 C 2.640625 -19.816406 3.164062 -20.015625 3.8125 -20.015625 C 4.238281 -20.015625 4.617188 -19.925781 4.953125 -19.75 C 5.285156 -19.570312 5.539062 -19.328125 5.71875 -19.015625 C 5.90625 -18.703125 6 -18.34375 6 -17.9375 C 6 -17.539062 5.90625 -17.179688 5.71875 -16.859375 C 5.539062 -16.546875 5.285156 -16.296875 4.953125 -16.109375 C 4.617188 -15.929688 4.238281 -15.84375 3.8125 -15.84375 Z M 2.046875 0 L 2.046875 -14.15625 L 5.59375 -14.15625 L 5.59375 0 Z M 2.046875 0 "/></g></g></g><g fill="#ffffff" fill-opacity="1"><g transform="translate(218.613086, 206.384173)"><g><path d="M 8.25 0.265625 C 6.882812 0.265625 5.675781 -0.015625 4.625 -0.578125 C 3.570312 -1.148438 2.75 -1.988281 2.15625 -3.09375 C 1.5625 -4.195312 1.265625 -5.523438 1.265625 -7.078125 C 1.265625 -8.628906 1.5625 -9.957031 2.15625 -11.0625 C 2.75 -12.164062 3.566406 -13 4.609375 -13.5625 C 5.648438 -14.132812 6.84375 -14.421875 8.1875 -14.421875 C 11.175781 -14.421875 13.085938 -13.335938 13.921875 -11.171875 L 11.484375 -9.4375 L 11.21875 -9.4375 C 10.925781 -10.101562 10.546875 -10.597656 10.078125 -10.921875 C 9.609375 -11.242188 8.976562 -11.40625 8.1875 -11.40625 C 7.15625 -11.40625 6.351562 -11.050781 5.78125 -10.34375 C 5.207031 -9.632812 4.921875 -8.546875 4.921875 -7.078125 C 4.921875 -5.617188 5.210938 -4.53125 5.796875 -3.8125 C 6.378906 -3.101562 7.195312 -2.75 8.25 -2.75 C 9.019531 -2.75 9.671875 -2.953125 10.203125 -3.359375 C 10.742188 -3.773438 11.128906 -4.375 11.359375 -5.15625 L 11.625 -5.1875 L 14.15625 -3.796875 C 13.789062 -2.597656 13.125 -1.617188 12.15625 -0.859375 C 11.1875 -0.109375 9.882812 0.265625 8.25 0.265625 Z M 8.25 0.265625 "/></g></g></g></svg>