<svg xmlns="http://www.w3.org/2000/svg" xmlns:xlink="http://www.w3.org/1999/xlink" width="500" zoomAndPan="magnify" viewBox="0 0 375 374.999991" height="500" preserveAspectRatio="xMidYMid meet" version="1.0"><defs><g/><clipPath id="d4096c0622"><path d="M 37.5 64 L 332 64 L 332 312.355469 L 37.5 312.355469 Z M 37.5 64 " clip-rule="nonzero"/></clipPath></defs><path fill="#ffffff" d="M 375 187.5 C 375 190.570312 374.925781 193.636719 374.773438 196.699219 C 374.625 199.765625 374.398438 202.824219 374.097656 205.878906 C 373.796875 208.933594 373.421875 211.976562 372.96875 215.011719 C 372.519531 218.046875 371.996094 221.070312 371.398438 224.078125 C 370.796875 227.089844 370.125 230.082031 369.378906 233.058594 C 368.636719 236.035156 367.816406 238.992188 366.925781 241.929688 C 366.035156 244.863281 365.074219 247.777344 364.039062 250.667969 C 363.003906 253.554688 361.902344 256.417969 360.726562 259.253906 C 359.554688 262.089844 358.308594 264.890625 356.996094 267.667969 C 355.6875 270.441406 354.304688 273.179688 352.859375 275.886719 C 351.414062 278.59375 349.902344 281.261719 348.324219 283.894531 C 346.746094 286.527344 345.105469 289.117188 343.402344 291.667969 C 341.695312 294.222656 339.929688 296.730469 338.101562 299.195312 C 336.273438 301.660156 334.386719 304.078125 332.4375 306.449219 C 330.492188 308.820312 328.488281 311.144531 326.429688 313.417969 C 324.367188 315.691406 322.253906 317.914062 320.082031 320.082031 C 317.914062 322.253906 315.691406 324.367188 313.417969 326.429688 C 311.144531 328.488281 308.820312 330.492188 306.449219 332.4375 C 304.078125 334.386719 301.660156 336.273438 299.195312 338.101562 C 296.730469 339.929688 294.222656 341.695312 291.667969 343.402344 C 289.117188 345.105469 286.527344 346.746094 283.894531 348.324219 C 281.261719 349.902344 278.59375 351.414062 275.886719 352.859375 C 273.179688 354.308594 270.441406 355.6875 267.667969 356.996094 C 264.890625 358.308594 262.089844 359.554688 259.253906 360.726562 C 256.417969 361.902344 253.554688 363.003906 250.667969 364.039062 C 247.777344 365.074219 244.863281 366.035156 241.929688 366.925781 C 238.992188 367.816406 236.035156 368.636719 233.058594 369.378906 C 230.082031 370.125 227.089844 370.796875 224.078125 371.398438 C 221.070312 371.996094 218.046875 372.519531 215.011719 372.96875 C 211.976562 373.421875 208.933594 373.796875 205.878906 374.097656 C 202.824219 374.398438 199.765625 374.625 196.699219 374.773438 C 193.636719 374.925781 190.570312 375 187.5 375 C 184.429688 375 181.363281 374.925781 178.300781 374.773438 C 175.234375 374.625 172.175781 374.398438 169.121094 374.097656 C 166.066406 373.796875 163.023438 373.421875 159.988281 372.96875 C 156.953125 372.519531 153.929688 371.996094 150.921875 371.398438 C 147.910156 370.796875 144.917969 370.125 141.941406 369.378906 C 138.964844 368.636719 136.007812 367.816406 133.070312 366.925781 C 130.136719 366.035156 127.222656 365.074219 124.332031 364.039062 C 121.445312 363.003906 118.582031 361.902344 115.746094 360.726562 C 112.910156 359.554688 110.105469 358.308594 107.332031 356.996094 C 104.558594 355.6875 101.820312 354.308594 99.113281 352.859375 C 96.40625 351.414062 93.738281 349.902344 91.105469 348.324219 C 88.472656 346.746094 85.882812 345.105469 83.332031 343.402344 C 80.777344 341.695312 78.269531 339.929688 75.804688 338.101562 C 73.339844 336.273438 70.921875 334.386719 68.550781 332.4375 C 66.179688 330.492188 63.855469 328.488281 61.582031 326.429688 C 59.308594 324.367188 57.085938 322.253906 54.917969 320.082031 C 52.746094 317.914062 50.632812 315.691406 48.570312 313.417969 C 46.511719 311.144531 44.507812 308.820312 42.558594 306.449219 C 40.613281 304.078125 38.726562 301.660156 36.898438 299.195312 C 35.070312 296.730469 33.304688 294.222656 31.597656 291.667969 C 29.894531 289.117188 28.253906 286.527344 26.675781 283.894531 C 25.097656 281.261719 23.585938 278.59375 22.140625 275.886719 C 20.691406 273.179688 19.3125 270.441406 18.003906 267.667969 C 16.691406 264.890625 15.445312 262.089844 14.273438 259.253906 C 13.097656 256.417969 11.996094 253.554688 10.960938 250.667969 C 9.925781 247.777344 8.964844 244.863281 8.074219 241.929688 C 7.183594 238.992188 6.363281 236.035156 5.617188 233.058594 C 4.875 230.082031 4.203125 227.089844 3.601562 224.078125 C 3.003906 221.070312 2.480469 218.046875 2.03125 215.011719 C 1.578125 211.976562 1.203125 208.933594 0.902344 205.878906 C 0.601562 202.824219 0.375 199.765625 0.226562 196.699219 C 0.0742188 193.636719 0 190.570312 0 187.5 C 0 184.429688 0.0742188 181.363281 0.226562 178.300781 C 0.375 175.234375 0.601562 172.175781 0.902344 169.121094 C 1.203125 166.066406 1.578125 163.023438 2.03125 159.988281 C 2.480469 156.953125 3.003906 153.929688 3.601562 150.921875 C 4.203125 147.910156 4.875 144.917969 5.617188 141.941406 C 6.363281 138.964844 7.183594 136.007812 8.074219 133.070312 C 8.964844 130.136719 9.925781 127.222656 10.960938 124.332031 C 11.996094 121.445312 13.097656 118.582031 14.273438 115.746094 C 15.445312 112.910156 16.691406 110.105469 18.003906 107.332031 C 19.3125 104.558594 20.691406 101.820312 22.140625 99.113281 C 23.585938 96.40625 25.097656 93.738281 26.675781 91.105469 C 28.253906 88.472656 29.894531 85.882812 31.597656 83.332031 C 33.304688 80.777344 35.070312 78.269531 36.898438 75.804688 C 38.726562 73.339844 40.613281 70.921875 42.558594 68.550781 C 44.507812 66.179688 46.511719 63.855469 48.570312 61.582031 C 50.632812 59.308594 52.746094 57.085938 54.917969 54.917969 C 57.085938 52.746094 59.308594 50.632812 61.582031 48.570312 C 63.855469 46.511719 66.179688 44.507812 68.550781 42.558594 C 70.921875 40.613281 73.339844 38.726562 75.804688 36.898438 C 78.269531 35.070312 80.777344 33.304688 83.332031 31.597656 C 85.882812 29.894531 88.472656 28.253906 91.105469 26.675781 C 93.738281 25.097656 96.40625 23.585938 99.113281 22.140625 C 101.820312 20.691406 104.558594 19.3125 107.332031 18.003906 C 110.105469 16.691406 112.910156 15.445312 115.746094 14.273438 C 118.582031 13.097656 121.445312 11.996094 124.332031 10.960938 C 127.222656 9.925781 130.136719 8.964844 133.070312 8.074219 C 136.007812 7.183594 138.964844 6.363281 141.941406 5.617188 C 144.917969 4.875 147.910156 4.203125 150.921875 3.601562 C 153.929688 3.003906 156.953125 2.480469 159.988281 2.03125 C 163.023438 1.578125 166.066406 1.203125 169.121094 0.902344 C 172.175781 0.601562 175.234375 0.375 178.300781 0.226562 C 181.363281 0.0742188 184.429688 0 187.5 0 C 190.570312 0 193.636719 0.0742188 196.699219 0.226562 C 199.765625 0.375 202.824219 0.601562 205.878906 0.902344 C 208.933594 1.203125 211.976562 1.578125 215.011719 2.03125 C 218.046875 2.480469 221.070312 3.003906 224.078125 3.601562 C 227.089844 4.203125 230.082031 4.875 233.058594 5.617188 C 236.035156 6.363281 238.992188 7.183594 241.929688 8.074219 C 244.863281 8.964844 247.777344 9.925781 250.667969 10.960938 C 253.554688 11.996094 256.417969 13.097656 259.253906 14.273438 C 262.089844 15.445312 264.890625 16.691406 267.667969 18.003906 C 270.441406 19.3125 273.179688 20.691406 275.886719 22.140625 C 278.59375 23.585938 281.261719 25.097656 283.894531 26.675781 C 286.527344 28.253906 289.117188 29.894531 291.667969 31.597656 C 294.222656 33.304688 296.730469 35.070312 299.195312 36.898438 C 301.660156 38.726562 304.078125 40.613281 306.449219 42.558594 C 308.820312 44.507812 311.144531 46.511719 313.417969 48.570312 C 315.691406 50.632812 317.914062 52.746094 320.082031 54.917969 C 322.253906 57.085938 324.367188 59.308594 326.429688 61.582031 C 328.488281 63.855469 330.492188 66.179688 332.4375 68.550781 C 334.386719 70.921875 336.273438 73.339844 338.101562 75.804688 C 339.929688 78.269531 341.695312 80.777344 343.402344 83.332031 C 345.105469 85.882812 346.746094 88.472656 348.324219 91.105469 C 349.902344 93.738281 351.414062 96.40625 352.859375 99.113281 C 354.304688 101.820312 355.6875 104.558594 356.996094 107.332031 C 358.308594 110.105469 359.554688 112.910156 360.726562 115.746094 C 361.902344 118.582031 363.003906 121.445312 364.039062 124.332031 C 365.074219 127.222656 366.035156 130.136719 366.925781 133.070312 C 367.816406 136.007812 368.636719 138.964844 369.378906 141.941406 C 370.125 144.917969 370.796875 147.910156 371.398438 150.921875 C 371.996094 153.929688 372.519531 156.953125 372.96875 159.988281 C 373.421875 163.023438 373.796875 166.066406 374.097656 169.121094 C 374.398438 172.175781 374.625 175.234375 374.773438 178.300781 C 374.925781 181.363281 375 184.429688 375 187.5 Z M 375 187.5 " fill-opacity="1" fill-rule="nonzero"/><g clip-path="url(#d4096c0622)"><path fill="#000000" d="M 330.84375 126.839844 C 330.445312 119.890625 332.996094 112.121094 328.378906 106.074219 C 320.285156 103.847656 312.21875 101.59375 304.101562 99.605469 C 303.675781 89.554688 304.472656 79.476562 303.734375 69.453125 C 302.5625 62.613281 294.234375 64.996094 289.402344 64.945312 C 247.535156 67.039062 208.957031 90.71875 184.332031 124 C 157.851562 87.9375 114.445312 63.085938 68.992188 64.941406 C 68.089844 65.710938 66.257812 67.246094 65.328125 68.015625 C 63.949219 78.4375 65.25 89.074219 64.691406 99.574219 C 55.488281 103.289062 41.878906 102.707031 37.5 113.316406 C 39.226562 117.503906 39.625 122.039062 39.4375 126.546875 C 39.039062 179.742188 39.808594 232.914062 39.0625 286.089844 C 38.375 290.09375 39.117188 297.175781 44.875 295.929688 C 63.472656 289.167969 83.503906 286.726562 103.242188 287.867188 C 130.070312 289.960938 157.929688 296.25 179.976562 312.320312 C 182.125 312.320312 186.398438 312.320312 188.515625 312.34375 C 200.722656 302.980469 215.527344 297.890625 230.144531 293.675781 C 261.480469 284.898438 295.3125 285.71875 326.113281 296.246094 C 332.691406 295.132812 330.914062 287.921875 330.972656 283.144531 C 330.6875 231.0625 330.925781 178.949219 330.84375 126.839844 Z M 50.636719 281.523438 C 50.796875 226.601562 50.609375 171.652344 50.714844 116.734375 C 55.410156 115.0625 60.132812 113.394531 64.855469 111.746094 C 64.75 155.609375 64.777344 199.476562 64.828125 243.339844 C 64.222656 251.320312 74.199219 249.914062 79.398438 250.417969 C 110.441406 251.714844 138.699219 267.496094 161.253906 287.996094 C 126.4375 273.941406 86.796875 270.757812 50.636719 281.523438 Z M 202.1875 290.808594 C 219.40625 273.96875 239.253906 258.855469 262.84375 252.355469 C 274.996094 248.242188 287.859375 247.847656 300.492188 246.652344 C 304.574219 246.148438 303.726562 241.058594 304.019531 238.191406 C 303.992188 196.234375 303.96875 154.285156 303.992188 112.328125 C 309.058594 113.867188 314.128906 115.402344 319.222656 116.890625 C 319.9375 171.8125 319.25 226.761719 319.566406 281.679688 C 280.964844 270.996094 238.804688 274.816406 202.1875 290.808594 Z M 202.1875 290.808594 " fill-opacity="1" fill-rule="nonzero"/></g><g fill="#ffffff" fill-opacity="1"><g transform="translate(134.549253, 162.42363)"><g><path d="M 8.171875 -5.0625 C 9.835938 -5.0625 10.945312 -5.273438 11.5 -5.703125 C 12.050781 -6.140625 12.328125 -6.632812 12.328125 -7.1875 C 12.328125 -7.789062 12.15625 -8.488281 11.8125 -9.28125 C 11.476562 -10.082031 11.0625 -10.921875 10.5625 -11.796875 C 10.0625 -12.671875 9.535156 -13.503906 8.984375 -14.296875 C 8.441406 -15.097656 7.96875 -15.800781 7.5625 -16.40625 L 12.015625 -19.359375 C 13.640625 -17.191406 14.921875 -15.085938 15.859375 -13.046875 C 16.796875 -11.015625 17.414062 -9.363281 17.71875 -8.09375 C 17.988281 -6.894531 18.507812 -6.085938 19.28125 -5.671875 C 20.0625 -5.265625 20.875 -5.0625 21.71875 -5.0625 C 22.664062 -5.0625 23.34375 -4.816406 23.75 -4.328125 C 24.164062 -3.835938 24.375 -3.234375 24.375 -2.515625 C 24.375 -1.734375 24.117188 -1.085938 23.609375 -0.578125 C 23.097656 -0.0664062 22.34375 0.1875 21.34375 0.1875 C 19 0.1875 17.253906 -0.535156 16.109375 -1.984375 C 15.429688 -1.335938 14.476562 -0.804688 13.25 -0.390625 C 12.03125 0.015625 10.582031 0.21875 8.90625 0.21875 C 7.757812 0.21875 6.472656 0.0820312 5.046875 -0.1875 C 3.628906 -0.457031 2.382812 -0.894531 1.3125 -1.5 L 3.140625 -6.25 C 4.066406 -5.832031 4.957031 -5.53125 5.8125 -5.34375 C 6.675781 -5.15625 7.460938 -5.0625 8.171875 -5.0625 Z M 8.171875 -5.0625 "/></g></g></g><g fill="#ffffff" fill-opacity="1"><g transform="translate(155.931824, 162.42363)"><g><path d="M 0 0.1875 L 0.375 -5.0625 C 1.269531 -5.0625 2.039062 -5.144531 2.6875 -5.3125 C 3.34375 -5.488281 3.894531 -5.84375 4.34375 -6.375 C 4.789062 -6.914062 5.171875 -7.710938 5.484375 -8.765625 C 5.796875 -9.816406 6.078125 -11.210938 6.328125 -12.953125 L 11.234375 -12.140625 C 11.140625 -11.554688 11.03125 -10.863281 10.90625 -10.0625 C 10.78125 -9.269531 10.71875 -8.535156 10.71875 -7.859375 C 10.71875 -6.960938 11.085938 -6.269531 11.828125 -5.78125 C 12.578125 -5.300781 13.863281 -5.0625 15.6875 -5.0625 C 16.613281 -5.0625 17.28125 -4.816406 17.6875 -4.328125 C 18.101562 -3.835938 18.3125 -3.234375 18.3125 -2.515625 C 18.3125 -1.734375 18.054688 -1.085938 17.546875 -0.578125 C 17.035156 -0.0664062 16.289062 0.1875 15.3125 0.1875 C 13.570312 0.1875 12.082031 -0.0351562 10.84375 -0.484375 C 9.601562 -0.929688 8.695312 -1.734375 8.125 -2.890625 C 7.445312 -1.984375 6.648438 -1.3125 5.734375 -0.875 C 4.828125 -0.4375 3.878906 -0.148438 2.890625 -0.015625 C 1.910156 0.117188 0.945312 0.1875 0 0.1875 Z M 10.453125 8.875 C 9.722656 8.875 9.101562 8.625 8.59375 8.125 C 8.082031 7.625 7.828125 7.015625 7.828125 6.296875 C 7.828125 5.566406 8.082031 4.941406 8.59375 4.421875 C 9.101562 3.898438 9.722656 3.640625 10.453125 3.640625 C 11.148438 3.640625 11.75 3.898438 12.25 4.421875 C 12.75 4.941406 13 5.566406 13 6.296875 C 13 7.015625 12.75 7.625 12.25 8.125 C 11.75 8.625 11.148438 8.875 10.453125 8.875 Z M 3.96875 8.875 C 3.25 8.875 2.628906 8.625 2.109375 8.125 C 1.597656 7.625 1.34375 7.015625 1.34375 6.296875 C 1.34375 5.566406 1.597656 4.941406 2.109375 4.421875 C 2.628906 3.898438 3.25 3.640625 3.96875 3.640625 C 4.664062 3.640625 5.265625 3.898438 5.765625 4.421875 C 6.265625 4.941406 6.515625 5.566406 6.515625 6.296875 C 6.515625 7.015625 6.265625 7.625 5.765625 8.125 C 5.265625 8.625 4.664062 8.875 3.96875 8.875 Z M 3.96875 8.875 "/></g></g></g><g fill="#ffffff" fill-opacity="1"><g transform="translate(171.247893, 162.42363)"><g><path d="M 0 0.1875 L 0.375 -5.0625 C 0.96875 -5.0625 1.429688 -5.1875 1.765625 -5.4375 C 2.109375 -5.6875 2.441406 -6.113281 2.765625 -6.71875 C 3.097656 -7.332031 3.550781 -8.1875 4.125 -9.28125 C 5.375 -11.65625 6.703125 -13.304688 8.109375 -14.234375 C 9.515625 -15.160156 10.878906 -15.625 12.203125 -15.625 C 13.578125 -15.625 14.84375 -15.164062 16 -14.25 C 17.164062 -13.34375 18.257812 -11.664062 19.28125 -9.21875 C 20.007812 -7.519531 20.734375 -6.398438 21.453125 -5.859375 C 22.179688 -5.328125 22.945312 -5.0625 23.75 -5.0625 C 24.695312 -5.0625 25.367188 -4.816406 25.765625 -4.328125 C 26.160156 -3.835938 26.359375 -3.234375 26.359375 -2.515625 C 26.359375 -1.734375 26.097656 -1.085938 25.578125 -0.578125 C 25.054688 -0.0664062 24.320312 0.1875 23.375 0.1875 C 22.269531 0.1875 21.253906 0.0234375 20.328125 -0.296875 C 19.410156 -0.617188 18.648438 -1.09375 18.046875 -1.71875 C 17.628906 -1.09375 17.050781 -0.535156 16.3125 -0.046875 C 15.570312 0.429688 14.679688 0.671875 13.640625 0.671875 C 13.015625 0.671875 12.28125 0.550781 11.4375 0.3125 C 10.601562 0.0820312 9.742188 -0.3125 8.859375 -0.875 C 7.972656 -1.4375 7.15625 -2.207031 6.40625 -3.1875 C 5.675781 -1.863281 4.835938 -0.96875 3.890625 -0.5 C 2.941406 -0.0390625 1.644531 0.1875 0 0.1875 Z M 8.578125 -7.609375 C 9.046875 -6.828125 9.726562 -6.117188 10.625 -5.484375 C 11.53125 -4.847656 12.472656 -4.53125 13.453125 -4.53125 C 13.941406 -4.53125 14.347656 -4.722656 14.671875 -5.109375 C 15.003906 -5.492188 15.019531 -6.078125 14.71875 -6.859375 C 14.539062 -7.273438 14.296875 -7.769531 13.984375 -8.34375 C 13.671875 -8.925781 13.320312 -9.421875 12.9375 -9.828125 C 12.550781 -10.242188 12.132812 -10.453125 11.6875 -10.453125 C 11.1875 -10.453125 10.671875 -10.222656 10.140625 -9.765625 C 9.617188 -9.316406 9.097656 -8.597656 8.578125 -7.609375 Z M 8.578125 -7.609375 "/></g></g></g><g fill="#ffffff" fill-opacity="1"><g transform="translate(194.615197, 162.42363)"><g><path d="M 0 0.1875 L 0.375 -5.0625 C 3.070312 -5.0625 5.691406 -5.359375 8.234375 -5.953125 C 10.785156 -6.554688 13.046875 -7.519531 15.015625 -8.84375 C 13.867188 -9.507812 12.601562 -10.03125 11.21875 -10.40625 C 9.832031 -10.78125 8.316406 -10.96875 6.671875 -10.96875 C 6.046875 -10.96875 5.398438 -10.9375 4.734375 -10.875 C 4.078125 -10.8125 3.410156 -10.707031 2.734375 -10.5625 L 1.984375 -15.6875 C 2.710938 -15.863281 3.472656 -16 4.265625 -16.09375 C 5.066406 -16.195312 5.789062 -16.25 6.4375 -16.25 C 8.132812 -16.25 9.65625 -16.023438 11 -15.578125 C 12.351562 -15.128906 13.582031 -14.601562 14.6875 -14 C 15.800781 -13.40625 16.835938 -12.882812 17.796875 -12.4375 C 18.765625 -11.988281 19.710938 -11.765625 20.640625 -11.765625 L 22.015625 -11.765625 L 22.625 -6.78125 C 22.070312 -6.75 21.546875 -6.671875 21.046875 -6.546875 C 20.546875 -6.421875 20.0625 -6.273438 19.59375 -6.109375 C 20.21875 -5.703125 20.960938 -5.425781 21.828125 -5.28125 C 22.703125 -5.132812 23.71875 -5.0625 24.875 -5.0625 C 25.820312 -5.0625 26.492188 -4.816406 26.890625 -4.328125 C 27.285156 -3.835938 27.484375 -3.234375 27.484375 -2.515625 C 27.484375 -1.734375 27.226562 -1.085938 26.71875 -0.578125 C 26.207031 -0.0664062 25.46875 0.1875 24.5 0.1875 C 22.5 0.1875 20.734375 -0.0976562 19.203125 -0.671875 C 17.679688 -1.242188 16.460938 -2.367188 15.546875 -4.046875 C 14.390625 -3.398438 13.117188 -2.75 11.734375 -2.09375 C 10.347656 -1.445312 8.707031 -0.90625 6.8125 -0.46875 C 4.914062 -0.03125 2.644531 0.1875 0 0.1875 Z M 0 0.1875 "/></g></g></g><g fill="#ffffff" fill-opacity="1"><g transform="translate(219.105926, 162.42363)"><g><path d="M 0 0.1875 L 0.375 -5.0625 C 1.519531 -5.0625 2.34375 -5.175781 2.84375 -5.40625 C 3.34375 -5.644531 3.640625 -6.09375 3.734375 -6.75 C 3.835938 -7.414062 3.863281 -8.382812 3.8125 -9.65625 L 3.140625 -27.421875 L 8.421875 -27.421875 L 9.171875 -9.28125 C 9.222656 -7.832031 9.164062 -6.53125 9 -5.375 C 8.84375 -4.21875 8.457031 -3.222656 7.84375 -2.390625 C 7.226562 -1.566406 6.289062 -0.929688 5.03125 -0.484375 C 3.769531 -0.0351562 2.09375 0.1875 0 0.1875 Z M 0 0.1875 "/></g></g></g><g fill="#ffffff" fill-opacity="1"><g transform="translate(230.22786, 162.42363)"><g><path d="M 3 0 L 2.203125 -27.421875 L 7.453125 -27.421875 L 8.234375 0 Z M 3 0 "/></g></g></g><g fill="#ffffff" fill-opacity="1"><g transform="translate(128.614155, 235.605812)"><g><path d="M 6.546875 0 L 2.59375 0 L 2.59375 -19.984375 L 6.546875 -19.984375 Z M 6.546875 0 "/></g></g></g><g fill="#ffffff" fill-opacity="1"><g transform="translate(137.768549, 235.605812)"><g><path d="M 2.171875 0 L 2.171875 -15.078125 L 5.8125 -15.078125 L 5.8125 -12.859375 L 6.09375 -12.796875 C 7.03125 -14.503906 8.550781 -15.359375 10.65625 -15.359375 C 12.394531 -15.359375 13.671875 -14.882812 14.484375 -13.9375 C 15.304688 -12.988281 15.71875 -11.609375 15.71875 -9.796875 L 15.71875 0 L 11.921875 0 L 11.921875 -9.328125 C 11.921875 -10.328125 11.71875 -11.046875 11.3125 -11.484375 C 10.914062 -11.929688 10.28125 -12.15625 9.40625 -12.15625 C 8.320312 -12.15625 7.472656 -11.804688 6.859375 -11.109375 C 6.253906 -10.410156 5.953125 -9.304688 5.953125 -7.796875 L 5.953125 0 Z M 2.171875 0 "/></g></g></g><g fill="#ffffff" fill-opacity="1"><g transform="translate(155.421499, 235.605812)"><g><path d="M 7.046875 0.28125 C 6.015625 0.28125 5.070312 0.160156 4.21875 -0.078125 C 3.363281 -0.316406 2.632812 -0.644531 2.03125 -1.0625 C 1.425781 -1.488281 0.976562 -1.976562 0.6875 -2.53125 L 2.78125 -4.796875 L 3.078125 -4.796875 C 3.578125 -4.117188 4.164062 -3.613281 4.84375 -3.28125 C 5.53125 -2.945312 6.273438 -2.78125 7.078125 -2.78125 C 7.816406 -2.78125 8.375 -2.910156 8.75 -3.171875 C 9.125 -3.429688 9.3125 -3.804688 9.3125 -4.296875 C 9.3125 -4.679688 9.175781 -5.003906 8.90625 -5.265625 C 8.632812 -5.523438 8.195312 -5.726562 7.59375 -5.875 L 5.609375 -6.359375 C 4.109375 -6.710938 3.015625 -7.253906 2.328125 -7.984375 C 1.640625 -8.722656 1.296875 -9.65625 1.296875 -10.78125 C 1.296875 -11.71875 1.535156 -12.53125 2.015625 -13.21875 C 2.492188 -13.914062 3.164062 -14.445312 4.03125 -14.8125 C 4.90625 -15.175781 5.921875 -15.359375 7.078125 -15.359375 C 8.429688 -15.359375 9.554688 -15.160156 10.453125 -14.765625 C 11.347656 -14.378906 12.046875 -13.859375 12.546875 -13.203125 L 10.515625 -11.015625 L 10.25 -11.015625 C 9.832031 -11.484375 9.359375 -11.828125 8.828125 -12.046875 C 8.304688 -12.265625 7.722656 -12.375 7.078125 -12.375 C 5.585938 -12.375 4.84375 -11.910156 4.84375 -10.984375 C 4.84375 -10.597656 4.976562 -10.28125 5.25 -10.03125 C 5.53125 -9.78125 6.019531 -9.578125 6.71875 -9.421875 L 8.578125 -9.015625 C 10.109375 -8.691406 11.226562 -8.164062 11.9375 -7.4375 C 12.644531 -6.71875 13 -5.742188 13 -4.515625 C 13 -3.566406 12.757812 -2.726562 12.28125 -2 C 11.8125 -1.269531 11.128906 -0.707031 10.234375 -0.3125 C 9.335938 0.0820312 8.273438 0.28125 7.046875 0.28125 Z M 7.046875 0.28125 "/></g></g></g><g fill="#ffffff" fill-opacity="1"><g transform="translate(169.317056, 235.605812)"><g><path d="M 10.40625 -3.59375 L 11.375 -0.796875 C 10.96875 -0.453125 10.453125 -0.1875 9.828125 0 C 9.210938 0.1875 8.515625 0.28125 7.734375 0.28125 C 6.097656 0.28125 4.859375 -0.160156 4.015625 -1.046875 C 3.171875 -1.929688 2.75 -3.222656 2.75 -4.921875 L 2.75 -12.078125 L 0.453125 -12.078125 L 0.453125 -15.078125 L 2.75 -15.078125 L 2.75 -18.015625 L 6.53125 -18.640625 L 6.53125 -15.078125 L 10.8125 -15.078125 L 10.8125 -12.078125 L 6.53125 -12.078125 L 6.53125 -5.1875 C 6.53125 -4.445312 6.679688 -3.90625 6.984375 -3.5625 C 7.296875 -3.21875 7.75 -3.046875 8.34375 -3.046875 C 9.019531 -3.046875 9.609375 -3.226562 10.109375 -3.59375 Z M 10.40625 -3.59375 "/></g></g></g><g fill="#ffffff" fill-opacity="1"><g transform="translate(181.026489, 235.605812)"><g><path d="M 4.0625 -16.875 C 3.375 -16.875 2.816406 -17.082031 2.390625 -17.5 C 1.960938 -17.914062 1.75 -18.453125 1.75 -19.109375 C 1.75 -19.753906 1.960938 -20.28125 2.390625 -20.6875 C 2.816406 -21.101562 3.375 -21.3125 4.0625 -21.3125 C 4.507812 -21.3125 4.910156 -21.21875 5.265625 -21.03125 C 5.628906 -20.84375 5.90625 -20.582031 6.09375 -20.25 C 6.289062 -19.914062 6.390625 -19.535156 6.390625 -19.109375 C 6.390625 -18.671875 6.289062 -18.285156 6.09375 -17.953125 C 5.90625 -17.617188 5.628906 -17.351562 5.265625 -17.15625 C 4.910156 -16.96875 4.507812 -16.875 4.0625 -16.875 Z M 2.171875 0 L 2.171875 -15.078125 L 5.953125 -15.078125 L 5.953125 0 Z M 2.171875 0 "/></g></g></g><g fill="#ffffff" fill-opacity="1"><g transform="translate(189.142473, 235.605812)"><g><path d="M 10.40625 -3.59375 L 11.375 -0.796875 C 10.96875 -0.453125 10.453125 -0.1875 9.828125 0 C 9.210938 0.1875 8.515625 0.28125 7.734375 0.28125 C 6.097656 0.28125 4.859375 -0.160156 4.015625 -1.046875 C 3.171875 -1.929688 2.75 -3.222656 2.75 -4.921875 L 2.75 -12.078125 L 0.453125 -12.078125 L 0.453125 -15.078125 L 2.75 -15.078125 L 2.75 -18.015625 L 6.53125 -18.640625 L 6.53125 -15.078125 L 10.8125 -15.078125 L 10.8125 -12.078125 L 6.53125 -12.078125 L 6.53125 -5.1875 C 6.53125 -4.445312 6.679688 -3.90625 6.984375 -3.5625 C 7.296875 -3.21875 7.75 -3.046875 8.34375 -3.046875 C 9.019531 -3.046875 9.609375 -3.226562 10.109375 -3.59375 Z M 10.40625 -3.59375 "/></g></g></g><g fill="#ffffff" fill-opacity="1"><g transform="translate(200.851906, 235.605812)"><g><path d="M 6.90625 0.28125 C 5.207031 0.28125 3.953125 -0.175781 3.140625 -1.09375 C 2.335938 -2.019531 1.9375 -3.347656 1.9375 -5.078125 L 1.9375 -15.078125 L 5.71875 -15.078125 L 5.71875 -5.5625 C 5.71875 -4.644531 5.914062 -3.972656 6.3125 -3.546875 C 6.71875 -3.117188 7.332031 -2.90625 8.15625 -2.90625 C 9.207031 -2.90625 10.023438 -3.25 10.609375 -3.9375 C 11.191406 -4.625 11.484375 -5.707031 11.484375 -7.1875 L 11.484375 -15.078125 L 15.265625 -15.078125 L 15.265625 0 L 11.625 0 L 11.625 -2.21875 L 11.34375 -2.28125 C 10.851562 -1.414062 10.257812 -0.769531 9.5625 -0.34375 C 8.875 0.0703125 7.988281 0.28125 6.90625 0.28125 Z M 6.90625 0.28125 "/></g></g></g><g fill="#ffffff" fill-opacity="1"><g transform="translate(218.286244, 235.605812)"><g><path d="M 10.40625 -3.59375 L 11.375 -0.796875 C 10.96875 -0.453125 10.453125 -0.1875 9.828125 0 C 9.210938 0.1875 8.515625 0.28125 7.734375 0.28125 C 6.097656 0.28125 4.859375 -0.160156 4.015625 -1.046875 C 3.171875 -1.929688 2.75 -3.222656 2.75 -4.921875 L 2.75 -12.078125 L 0.453125 -12.078125 L 0.453125 -15.078125 L 2.75 -15.078125 L 2.75 -18.015625 L 6.53125 -18.640625 L 6.53125 -15.078125 L 10.8125 -15.078125 L 10.8125 -12.078125 L 6.53125 -12.078125 L 6.53125 -5.1875 C 6.53125 -4.445312 6.679688 -3.90625 6.984375 -3.5625 C 7.296875 -3.21875 7.75 -3.046875 8.34375 -3.046875 C 9.019531 -3.046875 9.609375 -3.226562 10.109375 -3.59375 Z M 10.40625 -3.59375 "/></g></g></g><g fill="#ffffff" fill-opacity="1"><g transform="translate(229.995677, 235.605812)"><g><path d="M 14.890625 -6.6875 L 5.203125 -6.6875 C 5.316406 -5.375 5.691406 -4.414062 6.328125 -3.8125 C 6.960938 -3.21875 7.832031 -2.921875 8.9375 -2.921875 C 9.800781 -2.921875 10.5 -3.082031 11.03125 -3.40625 C 11.570312 -3.726562 12.007812 -4.21875 12.34375 -4.875 L 12.625 -4.875 L 15.140625 -3.265625 C 14.648438 -2.210938 13.90625 -1.359375 12.90625 -0.703125 C 11.914062 -0.046875 10.59375 0.28125 8.9375 0.28125 C 7.375 0.28125 6.023438 -0.0078125 4.890625 -0.59375 C 3.765625 -1.1875 2.894531 -2.066406 2.28125 -3.234375 C 1.664062 -4.410156 1.359375 -5.84375 1.359375 -7.53125 C 1.359375 -9.238281 1.679688 -10.679688 2.328125 -11.859375 C 2.972656 -13.035156 3.84375 -13.910156 4.9375 -14.484375 C 6.039062 -15.066406 7.28125 -15.359375 8.65625 -15.359375 C 10.789062 -15.359375 12.425781 -14.789062 13.5625 -13.65625 C 14.695312 -12.53125 15.265625 -10.875 15.265625 -8.6875 C 15.265625 -7.894531 15.238281 -7.28125 15.1875 -6.84375 Z M 11.640625 -9.125 C 11.609375 -10.269531 11.34375 -11.101562 10.84375 -11.625 C 10.34375 -12.15625 9.613281 -12.421875 8.65625 -12.421875 C 6.75 -12.421875 5.625 -11.320312 5.28125 -9.125 Z M 11.640625 -9.125 "/></g></g></g><g fill="#ffffff" fill-opacity="1"><g transform="translate(142.768702, 202.630725)"><g><path d="M 6.015625 0 L 2.390625 0 L 2.390625 -18.359375 L 6.015625 -18.359375 Z M 6.015625 0 "/></g></g></g><g fill="#ffffff" fill-opacity="1"><g transform="translate(151.181597, 202.630725)"><g><path d="M 6.484375 0.265625 C 5.535156 0.265625 4.664062 0.15625 3.875 -0.0625 C 3.09375 -0.289062 2.421875 -0.597656 1.859375 -0.984375 C 1.304688 -1.367188 0.894531 -1.816406 0.625 -2.328125 L 2.5625 -4.40625 L 2.828125 -4.40625 C 3.285156 -3.789062 3.828125 -3.328125 4.453125 -3.015625 C 5.085938 -2.703125 5.769531 -2.546875 6.5 -2.546875 C 7.175781 -2.546875 7.6875 -2.664062 8.03125 -2.90625 C 8.375 -3.15625 8.546875 -3.503906 8.546875 -3.953125 C 8.546875 -4.304688 8.421875 -4.601562 8.171875 -4.84375 C 7.929688 -5.082031 7.535156 -5.269531 6.984375 -5.40625 L 5.15625 -5.84375 C 3.78125 -6.164062 2.773438 -6.660156 2.140625 -7.328125 C 1.503906 -8.003906 1.1875 -8.863281 1.1875 -9.90625 C 1.1875 -10.769531 1.40625 -11.519531 1.84375 -12.15625 C 2.289062 -12.789062 2.910156 -13.273438 3.703125 -13.609375 C 4.503906 -13.941406 5.4375 -14.109375 6.5 -14.109375 C 7.75 -14.109375 8.785156 -13.925781 9.609375 -13.5625 C 10.429688 -13.207031 11.070312 -12.726562 11.53125 -12.125 L 9.671875 -10.125 L 9.421875 -10.125 C 9.035156 -10.5625 8.597656 -10.878906 8.109375 -11.078125 C 7.628906 -11.273438 7.09375 -11.375 6.5 -11.375 C 5.132812 -11.375 4.453125 -10.945312 4.453125 -10.09375 C 4.453125 -9.738281 4.578125 -9.445312 4.828125 -9.21875 C 5.085938 -8.988281 5.535156 -8.804688 6.171875 -8.671875 L 7.890625 -8.28125 C 9.296875 -7.988281 10.320312 -7.507812 10.96875 -6.84375 C 11.613281 -6.175781 11.9375 -5.28125 11.9375 -4.15625 C 11.9375 -3.28125 11.71875 -2.503906 11.28125 -1.828125 C 10.851562 -1.160156 10.226562 -0.644531 9.40625 -0.28125 C 8.582031 0.0820312 7.609375 0.265625 6.484375 0.265625 Z M 6.484375 0.265625 "/></g></g></g><g fill="#ffffff" fill-opacity="1"><g transform="translate(163.951624, 202.630725)"><g><path d="M 5.75 0.265625 C 4.5 0.265625 3.546875 -0.0703125 2.890625 -0.75 C 2.234375 -1.425781 1.90625 -2.445312 1.90625 -3.8125 L 1.90625 -19.421875 L 5.390625 -19.421875 L 5.390625 -3.953125 C 5.390625 -3.109375 5.738281 -2.6875 6.4375 -2.6875 C 6.644531 -2.6875 6.859375 -2.71875 7.078125 -2.78125 L 7.265625 -2.734375 L 7.578125 -0.0625 C 7.378906 0.0390625 7.117188 0.117188 6.796875 0.171875 C 6.484375 0.234375 6.132812 0.265625 5.75 0.265625 Z M 5.75 0.265625 "/></g></g></g><g fill="#ffffff" fill-opacity="1"><g transform="translate(171.912483, 202.630725)"><g><path d="M 5.40625 0.265625 C 4.507812 0.265625 3.734375 0.101562 3.078125 -0.21875 C 2.429688 -0.550781 1.929688 -1.03125 1.578125 -1.65625 C 1.234375 -2.289062 1.0625 -3.050781 1.0625 -3.9375 C 1.0625 -4.757812 1.234375 -5.445312 1.578125 -6 C 1.929688 -6.5625 2.472656 -7.019531 3.203125 -7.375 C 3.941406 -7.726562 4.910156 -8.003906 6.109375 -8.203125 C 6.929688 -8.335938 7.554688 -8.484375 7.984375 -8.640625 C 8.421875 -8.796875 8.710938 -8.972656 8.859375 -9.171875 C 9.015625 -9.378906 9.09375 -9.640625 9.09375 -9.953125 C 9.09375 -10.390625 8.9375 -10.722656 8.625 -10.953125 C 8.3125 -11.191406 7.796875 -11.3125 7.078125 -11.3125 C 6.304688 -11.3125 5.570312 -11.140625 4.875 -10.796875 C 4.1875 -10.453125 3.585938 -10 3.078125 -9.4375 L 2.828125 -9.4375 L 1.375 -11.640625 C 2.070312 -12.421875 2.925781 -13.023438 3.9375 -13.453125 C 4.957031 -13.890625 6.066406 -14.109375 7.265625 -14.109375 C 9.097656 -14.109375 10.421875 -13.71875 11.234375 -12.9375 C 12.054688 -12.164062 12.46875 -11.0625 12.46875 -9.625 L 12.46875 -3.609375 C 12.46875 -2.992188 12.738281 -2.6875 13.28125 -2.6875 C 13.488281 -2.6875 13.695312 -2.722656 13.90625 -2.796875 L 14.078125 -2.75 L 14.328125 -0.328125 C 14.140625 -0.203125 13.875 -0.0976562 13.53125 -0.015625 C 13.1875 0.0546875 12.804688 0.09375 12.390625 0.09375 C 11.566406 0.09375 10.921875 -0.0625 10.453125 -0.375 C 9.984375 -0.695312 9.648438 -1.195312 9.453125 -1.875 L 9.1875 -1.890625 C 8.507812 -0.453125 7.25 0.265625 5.40625 0.265625 Z M 6.5 -2.328125 C 7.300781 -2.328125 7.941406 -2.597656 8.421875 -3.140625 C 8.910156 -3.679688 9.15625 -4.4375 9.15625 -5.40625 L 9.15625 -6.8125 L 8.921875 -6.859375 C 8.710938 -6.691406 8.4375 -6.550781 8.09375 -6.4375 C 7.75 -6.320312 7.257812 -6.210938 6.625 -6.109375 C 5.875 -5.984375 5.332031 -5.765625 5 -5.453125 C 4.675781 -5.148438 4.515625 -4.71875 4.515625 -4.15625 C 4.515625 -3.5625 4.6875 -3.109375 5.03125 -2.796875 C 5.382812 -2.484375 5.875 -2.328125 6.5 -2.328125 Z M 6.5 -2.328125 "/></g></g></g><g fill="#ffffff" fill-opacity="1"><g transform="translate(186.515768, 202.630725)"><g><path d="M 2 0 L 2 -13.84375 L 5.34375 -13.84375 L 5.34375 -12 L 5.59375 -11.9375 C 6.050781 -12.6875 6.582031 -13.234375 7.1875 -13.578125 C 7.789062 -13.929688 8.566406 -14.109375 9.515625 -14.109375 C 10.566406 -14.109375 11.410156 -13.898438 12.046875 -13.484375 C 12.679688 -13.078125 13.144531 -12.472656 13.4375 -11.671875 L 13.703125 -11.671875 C 14.128906 -12.503906 14.675781 -13.117188 15.34375 -13.515625 C 16.019531 -13.910156 16.863281 -14.109375 17.875 -14.109375 C 20.738281 -14.109375 22.171875 -12.507812 22.171875 -9.3125 L 22.171875 0 L 18.703125 0 L 18.703125 -8.875 C 18.703125 -9.6875 18.539062 -10.269531 18.21875 -10.625 C 17.90625 -10.988281 17.394531 -11.171875 16.6875 -11.171875 C 14.78125 -11.171875 13.828125 -9.894531 13.828125 -7.34375 L 13.828125 0 L 10.34375 0 L 10.34375 -8.875 C 10.34375 -9.6875 10.179688 -10.269531 9.859375 -10.625 C 9.535156 -10.988281 9.023438 -11.171875 8.328125 -11.171875 C 7.429688 -11.171875 6.726562 -10.867188 6.21875 -10.265625 C 5.71875 -9.671875 5.46875 -8.722656 5.46875 -7.421875 L 5.46875 0 Z M 2 0 "/></g></g></g><g fill="#ffffff" fill-opacity="1"><g transform="translate(210.473684, 202.630725)"><g><path d="M 3.734375 -15.515625 C 3.097656 -15.515625 2.582031 -15.703125 2.1875 -16.078125 C 1.800781 -16.460938 1.609375 -16.957031 1.609375 -17.5625 C 1.609375 -18.15625 1.800781 -18.640625 2.1875 -19.015625 C 2.582031 -19.398438 3.097656 -19.59375 3.734375 -19.59375 C 4.148438 -19.59375 4.519531 -19.503906 4.84375 -19.328125 C 5.175781 -19.148438 5.429688 -18.90625 5.609375 -18.59375 C 5.785156 -18.289062 5.875 -17.945312 5.875 -17.5625 C 5.875 -17.164062 5.785156 -16.8125 5.609375 -16.5 C 5.429688 -16.1875 5.175781 -15.941406 4.84375 -15.765625 C 4.519531 -15.597656 4.148438 -15.515625 3.734375 -15.515625 Z M 2 0 L 2 -13.84375 L 5.46875 -13.84375 L 5.46875 0 Z M 2 0 "/></g></g></g><g fill="#ffffff" fill-opacity="1"><g transform="translate(217.93228, 202.630725)"><g><path d="M 8.078125 0.265625 C 6.734375 0.265625 5.546875 -0.0078125 4.515625 -0.5625 C 3.484375 -1.125 2.679688 -1.941406 2.109375 -3.015625 C 1.535156 -4.097656 1.25 -5.398438 1.25 -6.921875 C 1.25 -8.441406 1.535156 -9.738281 2.109375 -10.8125 C 2.679688 -11.894531 3.476562 -12.710938 4.5 -13.265625 C 5.53125 -13.828125 6.703125 -14.109375 8.015625 -14.109375 C 10.929688 -14.109375 12.800781 -13.050781 13.625 -10.9375 L 11.234375 -9.234375 L 10.96875 -9.234375 C 10.6875 -9.878906 10.316406 -10.359375 9.859375 -10.671875 C 9.410156 -10.992188 8.796875 -11.15625 8.015625 -11.15625 C 7.003906 -11.15625 6.21875 -10.804688 5.65625 -10.109375 C 5.101562 -9.421875 4.828125 -8.359375 4.828125 -6.921875 C 4.828125 -5.492188 5.109375 -4.429688 5.671875 -3.734375 C 6.242188 -3.035156 7.046875 -2.6875 8.078125 -2.6875 C 8.828125 -2.6875 9.460938 -2.890625 9.984375 -3.296875 C 10.515625 -3.703125 10.890625 -4.285156 11.109375 -5.046875 L 11.375 -5.078125 L 13.84375 -3.71875 C 13.5 -2.539062 12.847656 -1.582031 11.890625 -0.84375 C 10.941406 -0.101562 9.671875 0.265625 8.078125 0.265625 Z M 8.078125 0.265625 "/></g></g></g></svg>