<svg xmlns="http://www.w3.org/2000/svg" xmlns:xlink="http://www.w3.org/1999/xlink" width="1280" zoomAndPan="magnify" viewBox="0 0 960 959.999988" height="1280" preserveAspectRatio="xMidYMid meet" version="1.0"><defs><clipPath id="c28a70743b"><path d="M 11.347656 11.347656 L 948.769531 11.347656 L 948.769531 948.769531 L 11.347656 948.769531 Z M 11.347656 11.347656 " clip-rule="nonzero"/></clipPath></defs><path fill="#b7daec" d="M 480.0625 937.328125 C 731.921875 937.328125 937.335938 731.914062 937.335938 480.054688 C 937.335938 228.203125 731.921875 22.789062 480.0625 22.789062 C 228.210938 22.789062 22.796875 228.203125 22.796875 480.054688 C 22.796875 731.914062 228.210938 937.328125 480.0625 937.328125 " fill-opacity="1" fill-rule="evenodd"/><path fill="#ff9966" d="M 612.253906 414.195312 C 612.253906 441.46875 593.09375 471.550781 569.667969 481.042969 L 502.316406 508.347656 C 492.597656 512.285156 467.527344 512.285156 457.804688 508.347656 L 390.453125 481.042969 C 367.03125 471.550781 347.867188 441.46875 347.867188 414.195312 C 347.867188 347.789062 347.867188 281.375 347.867188 214.96875 C 347.867188 170.984375 403.535156 130.179688 446.859375 130.179688 L 513.273438 130.179688 C 556.597656 130.179688 612.253906 170.984375 612.253906 214.96875 C 612.253906 281.375 612.253906 347.789062 612.253906 414.195312 " fill-opacity="1" fill-rule="evenodd"/><path fill="#000000" d="M 347.867188 214.96875 C 347.867188 170.984375 403.535156 130.179688 446.859375 130.179688 L 513.273438 130.179688 C 556.597656 130.179688 612.253906 170.984375 612.253906 214.96875 L 612.253906 226.144531 C 579.105469 241.585938 347.867188 244.382812 347.867188 214.96875 " fill-opacity="1" fill-rule="evenodd"/><path fill="#ff9966" d="M 562.015625 484.152344 L 562.015625 565.441406 C 508.695312 595.777344 454.0625 595.785156 398.109375 565.441406 L 398.109375 484.152344 L 457.804688 508.347656 C 467.527344 512.285156 492.597656 512.285156 502.316406 508.347656 L 562.015625 484.152344 " fill-opacity="1" fill-rule="evenodd"/><path fill="#ffffff" d="M 398.109375 565.441406 C 425.996094 580.558594 453.554688 588.140625 480.777344 588.191406 L 480.777344 937.320312 L 480.0625 937.328125 C 403.890625 937.328125 332.085938 918.679688 268.921875 885.734375 L 268.921875 785.128906 C 258.113281 787.941406 250.074219 797.820312 250.074219 809.476562 L 250.074219 875.335938 C 204.234375 848.613281 163.480469 814.132812 129.566406 773.710938 L 129.566406 701.980469 C 129.566406 668.859375 154.644531 634.636719 185.292969 625.917969 L 398.109375 565.441406 " fill-opacity="1" fill-rule="evenodd"/><path fill="#e48b58" d="M 612.253906 414.195312 C 612.253906 441.46875 593.09375 471.550781 569.667969 481.042969 L 502.316406 508.347656 L 501.859375 508.527344 L 501.847656 508.527344 L 501.425781 508.679688 L 501.386719 508.695312 L 501.359375 508.703125 L 501.144531 508.777344 L 500.894531 508.859375 L 500.847656 508.875 L 500.640625 508.941406 L 500.375 509.019531 L 500.324219 509.042969 L 500.117188 509.101562 L 499.851562 509.175781 L 499.769531 509.199219 L 499.570312 509.25 L 499.300781 509.324219 L 499.203125 509.351562 L 499.019531 509.398438 L 498.730469 509.472656 L 498.621094 509.5 L 498.441406 509.539062 L 498.148438 509.613281 L 498.015625 509.640625 L 497.84375 509.679688 L 497.542969 509.746094 L 497.386719 509.773438 L 497.238281 509.8125 L 496.929688 509.871094 L 496.753906 509.90625 L 496.613281 509.9375 L 496.292969 509.996094 L 496.101562 510.03125 L 495.976562 510.054688 L 495.652344 510.105469 L 495.429688 510.148438 L 495.328125 510.164062 L 494.996094 510.214844 L 494.75 510.261719 L 494.664062 510.277344 L 494.324219 510.328125 L 494.058594 510.363281 L 493.984375 510.378906 L 493.636719 510.421875 L 493.347656 510.46875 L 493.296875 510.476562 L 492.625 510.5625 L 492.589844 510.570312 L 492.242188 510.609375 L 491.902344 510.652344 L 491.878906 510.652344 L 491.519531 510.695312 L 491.164062 510.734375 L 491.15625 510.734375 L 490.796875 510.769531 L 490.433594 510.816406 L 490.402344 510.816406 L 490.0625 510.84375 L 489.6875 510.882812 L 489.644531 510.886719 L 489.320312 510.917969 L 488.941406 510.949219 L 488.875 510.953125 L 488.566406 510.976562 L 488.1875 511.007812 L 488.101562 511.015625 L 487.429688 511.066406 L 487.320312 511.066406 L 486.660156 511.109375 L 486.519531 511.117188 L 486.277344 511.132812 L 485.730469 511.160156 L 485.496094 511.167969 L 485.109375 511.191406 L 484.925781 511.199219 L 484.328125 511.21875 L 484.121094 511.226562 L 483.9375 511.234375 L 483.546875 511.25 L 483.316406 511.257812 L 483.148438 511.257812 L 482.757812 511.273438 L 482.503906 511.28125 L 482.359375 511.28125 L 481.964844 511.285156 L 481.695312 511.285156 L 481.566406 511.292969 L 481.175781 511.292969 L 480.882812 511.300781 L 480.777344 511.300781 L 480.777344 400.871094 L 473.042969 400.871094 C 462.339844 400.871094 455.886719 392.1875 457.820312 381.398438 L 470.910156 308.375 C 471.75 303.675781 477.277344 299.796875 480.777344 296.441406 L 480.777344 130.179688 L 513.273438 130.179688 C 556.597656 130.179688 612.253906 170.984375 612.253906 214.96875 L 612.253906 414.195312 " fill-opacity="1" fill-rule="evenodd"/><path fill="#000000" d="M 480.777344 237.519531 L 480.777344 130.179688 L 513.273438 130.179688 C 556.597656 130.179688 612.253906 170.984375 612.253906 214.96875 L 612.253906 226.144531 C 596.847656 233.324219 538.660156 237.769531 480.777344 237.519531 " fill-opacity="1" fill-rule="evenodd"/><path fill="#ff9966" d="M 342.097656 296.195312 L 354.695312 296.195312 L 354.695312 354.171875 L 350.074219 354.171875 C 340.53125 354.171875 331.886719 348.054688 330.855469 340.566406 L 326.617188 309.792969 C 325.589844 302.316406 332.550781 296.195312 342.097656 296.195312 " fill-opacity="1" fill-rule="evenodd"/><path fill="#e48b58" d="M 618.027344 296.195312 L 605.425781 296.195312 L 605.425781 354.171875 L 610.046875 354.171875 C 619.59375 354.171875 628.238281 348.054688 629.269531 340.566406 L 633.507812 309.792969 C 634.535156 302.316406 627.574219 296.195312 618.027344 296.195312 " fill-opacity="1" fill-rule="evenodd"/><path fill="#e48b58" d="M 562.015625 484.152344 L 562.015625 498.953125 L 502.316406 523.148438 C 492.597656 527.089844 467.527344 527.089844 457.804688 523.148438 L 398.109375 498.953125 L 398.109375 484.152344 L 457.804688 508.347656 C 467.527344 512.285156 492.597656 512.285156 502.316406 508.347656 L 562.015625 484.152344 " fill-opacity="1" fill-rule="evenodd"/><path fill="#1b2728" d="M 498.632812 459.015625 L 508.148438 459.015625 C 514.578125 459.015625 519.84375 453.761719 519.84375 447.332031 L 519.84375 431.410156 C 519.84375 424.988281 514.578125 419.722656 508.148438 419.722656 L 451.980469 419.722656 C 445.542969 419.722656 440.289062 424.988281 440.289062 431.410156 L 440.289062 447.332031 C 440.289062 453.761719 445.542969 459.015625 451.980469 459.015625 L 461.488281 459.015625 L 461.488281 457.671875 C 461.488281 452.035156 466.101562 447.417969 471.742188 447.417969 L 488.382812 447.417969 C 494.019531 447.417969 498.632812 452.035156 498.632812 457.671875 Z M 497.394531 509.773438 L 497.386719 509.773438 L 496.753906 509.90625 L 496.679688 509.921875 L 496.125 510.023438 L 496.101562 510.03125 L 495.941406 510.054688 L 495.753906 510.089844 L 495.5625 510.121094 L 495.429688 510.144531 L 495.378906 510.15625 L 495.1875 510.1875 L 494.804688 510.253906 L 494.613281 510.28125 L 494.414062 510.3125 L 494.21875 510.34375 L 494.058594 510.363281 L 494.019531 510.371094 L 493.621094 510.429688 L 493.421875 510.453125 L 493.347656 510.46875 L 493.222656 510.484375 L 493.023438 510.511719 L 492.816406 510.535156 L 492.625 510.5625 L 492.617188 510.5625 L 492.410156 510.59375 L 492 510.636719 L 491.792969 510.667969 L 491.378906 510.710938 L 491.164062 510.734375 L 491.15625 510.734375 L 491.082031 510.75 L 490.601562 510.792969 L 490.515625 510.800781 L 490.402344 510.816406 L 490.035156 510.851562 L 489.9375 510.859375 L 489.644531 510.886719 L 489.460938 510.902344 L 488.875 510.953125 L 488.78125 510.960938 L 488.292969 511 L 488.101562 511.015625 L 487.703125 511.042969 L 487.605469 511.050781 L 487.320312 511.066406 L 487.105469 511.082031 L 487.015625 511.085938 L 486.527344 511.117188 L 486.515625 511.117188 L 485.910156 511.148438 L 485.730469 511.160156 L 485.308594 511.175781 L 484.925781 511.199219 L 484.839844 511.199219 L 484.707031 511.207031 L 484.609375 511.214844 L 484.121094 511.226562 L 484.09375 511.226562 L 483.996094 511.234375 L 483.488281 511.25 L 483.390625 511.25 L 483.316406 511.257812 L 482.875 511.265625 L 482.777344 511.273438 L 482.503906 511.28125 L 482.164062 511.28125 L 481.695312 511.285156 L 481.648438 511.285156 L 481.554688 511.292969 L 480.941406 511.292969 L 480.882812 511.300781 L 479.25 511.300781 L 479.191406 511.292969 L 478.578125 511.292969 L 478.480469 511.285156 L 478.429688 511.285156 L 477.957031 511.28125 L 477.617188 511.28125 L 477.34375 511.273438 L 477.257812 511.265625 L 476.808594 511.257812 L 476.742188 511.25 L 476.644531 511.25 L 476.128906 511.234375 L 476.03125 511.226562 L 476.003906 511.226562 L 475.523438 511.214844 L 475.425781 511.207031 L 475.292969 511.199219 L 475.199219 511.199219 L 474.820312 511.175781 L 474.394531 511.160156 L 474.3125 511.152344 L 474.214844 511.148438 L 473.617188 511.117188 L 473.601562 511.117188 L 473.117188 511.085938 L 473.019531 511.082031 L 472.8125 511.066406 L 472.519531 511.050781 L 472.429688 511.042969 L 472.023438 511.015625 L 471.839844 511 L 471.34375 510.960938 L 471.253906 510.953125 L 471.25 510.953125 L 470.671875 510.902344 L 470.480469 510.886719 L 470.183594 510.859375 L 470.097656 510.851562 L 469.71875 510.816406 L 469.617188 510.800781 L 469.527344 510.792969 L 469.046875 510.75 L 468.96875 510.734375 L 468.960938 510.734375 L 468.546875 510.6875 L 468.332031 510.667969 L 468.125 510.636719 L 467.710938 510.59375 L 467.511719 510.5625 L 467.5 510.5625 L 467.304688 510.535156 L 467.105469 510.511719 L 466.90625 510.484375 L 466.699219 510.453125 L 466.5 510.429688 L 466.300781 510.402344 L 466.109375 510.371094 L 466.074219 510.363281 L 465.910156 510.34375 L 465.710938 510.3125 L 465.519531 510.28125 L 465.371094 510.261719 L 465.328125 510.253906 L 465.136719 510.214844 L 464.753906 510.15625 L 464.691406 510.144531 L 464.558594 510.121094 L 464.375 510.089844 L 464.183594 510.054688 L 464 510.023438 L 463.445312 509.914062 L 463.269531 509.882812 L 463.089844 509.847656 L 462.90625 509.8125 L 462.890625 509.8125 L 462.382812 509.699219 L 462.207031 509.65625 L 462.109375 509.640625 L 462.035156 509.617188 L 461.867188 509.582031 L 461.695312 509.539062 L 461.378906 509.464844 L 461.355469 509.464844 L 461.03125 509.375 L 460.921875 509.351562 L 460.863281 509.339844 L 460.707031 509.292969 L 460.382812 509.207031 L 460.257812 509.167969 L 460.226562 509.160156 L 459.917969 509.074219 L 459.804688 509.035156 L 459.769531 509.027344 L 459.621094 508.984375 L 459.46875 508.941406 L 459.320312 508.886719 L 459.273438 508.875 L 459.179688 508.84375 L 458.890625 508.746094 L 458.765625 508.703125 L 458.75 508.695312 L 458.609375 508.652344 L 458.46875 508.601562 L 458.335938 508.546875 L 458.277344 508.527344 L 458.203125 508.496094 L 457.804688 508.347656 L 425.6875 495.328125 L 390.453125 481.042969 C 367.03125 471.550781 347.867188 441.46875 347.867188 414.195312 L 347.867188 214.96875 C 347.867188 210.292969 354.902344 206.398438 366.625 203.246094 L 366.625 386.210938 L 425.6875 444.394531 L 425.6875 443.066406 C 425.6875 425.265625 440.246094 410.710938 458.042969 410.710938 L 502.082031 410.710938 C 519.878906 410.710938 534.4375 425.265625 534.4375 443.066406 L 534.4375 444.394531 L 593.503906 386.210938 L 593.503906 203.246094 C 605.226562 206.398438 612.261719 210.292969 612.261719 214.96875 L 612.261719 414.195312 C 612.261719 441.46875 593.097656 471.550781 569.667969 481.042969 L 502.316406 508.347656 C 500.953125 508.902344 499.285156 509.375 497.394531 509.773438 " fill-opacity="1" fill-rule="evenodd"/><path fill="#ffffff" d="M 389.714844 128.96875 L 570.40625 128.96875 C 593.433594 128.96875 612.261719 146.300781 612.261719 167.480469 C 612.261719 192.785156 612.261719 218.082031 612.261719 243.378906 C 526.085938 266.765625 437.984375 267.222656 347.863281 243.378906 C 347.863281 218.082031 347.863281 192.785156 347.863281 167.480469 C 347.863281 146.300781 366.699219 128.96875 389.714844 128.96875 " fill-opacity="1" fill-rule="evenodd"/><path fill="#ecf0f1" d="M 480.777344 128.96875 L 570.40625 128.96875 C 593.433594 128.96875 612.261719 146.300781 612.261719 167.480469 C 612.261719 192.785156 612.261719 218.082031 612.261719 243.378906 C 568.925781 255.140625 525.097656 261.097656 480.777344 261.089844 L 480.777344 128.96875 " fill-opacity="1" fill-rule="evenodd"/><path fill="#ecf0f1" d="M 480.777344 588.191406 C 508.1875 588.242188 535.269531 580.660156 562.015625 565.441406 L 691.203125 602.15625 L 774.832031 625.917969 C 805.480469 634.636719 830.558594 668.859375 830.558594 701.980469 L 830.558594 773.710938 C 796.644531 814.132812 755.890625 848.613281 710.050781 875.335938 L 710.050781 809.476562 C 710.050781 797.820312 702.011719 787.941406 691.203125 785.128906 L 691.203125 885.734375 C 628.238281 918.578125 556.679688 937.203125 480.777344 937.3125 L 480.777344 588.191406 " fill-opacity="1" fill-rule="evenodd"/><path fill="#ecf0f1" d="M 562.015625 539.035156 L 562.015625 565.441406 C 508.695312 595.777344 454.0625 595.785156 398.109375 565.441406 L 398.109375 539.035156 L 562.015625 539.035156 " fill-opacity="1" fill-rule="evenodd"/><path fill="#e1e6e7" d="M 562.015625 539.035156 L 562.015625 565.441406 C 535.269531 580.660156 508.1875 588.242188 480.777344 588.191406 L 480.777344 539.035156 L 562.015625 539.035156 " fill-opacity="1" fill-rule="evenodd"/><path fill="#ecf0f1" d="M 460.632812 586.789062 C 473.660156 588.574219 486.609375 588.65625 499.492188 587.03125 L 499.492188 806.847656 C 499.492188 810.449219 496.546875 813.402344 492.9375 813.402344 L 467.1875 813.402344 C 463.585938 813.402344 460.632812 810.449219 460.632812 806.847656 L 460.632812 586.789062 " fill-opacity="1" fill-rule="evenodd"/><path fill="#e1e6e7" d="M 480.777344 588.191406 C 487.03125 588.207031 493.269531 587.8125 499.492188 587.03125 L 499.492188 806.847656 C 499.492188 810.449219 496.546875 813.402344 492.9375 813.402344 L 480.777344 813.402344 L 480.777344 588.191406 " fill-opacity="1" fill-rule="evenodd"/><g clip-path="url(#c28a70743b)"><path fill="#a9d1e7" d="M 795.308594 164.808594 C 714.632812 84.132812 603.175781 34.230469 480.0625 34.230469 C 356.949219 34.230469 245.492188 84.132812 164.816406 164.808594 C 84.140625 245.484375 34.238281 356.949219 34.238281 480.054688 C 34.238281 603.167969 84.140625 714.625 164.816406 795.300781 C 245.492188 875.976562 356.949219 925.878906 480.0625 925.878906 C 603.175781 925.878906 714.632812 875.976562 795.308594 795.300781 C 875.984375 714.625 925.886719 603.167969 925.886719 480.054688 C 925.886719 356.949219 875.984375 245.484375 795.308594 164.808594 Z M 480.0625 11.339844 C 609.496094 11.339844 726.671875 63.808594 811.488281 148.625 C 896.3125 233.445312 948.777344 350.621094 948.777344 480.054688 C 948.777344 609.488281 896.3125 726.664062 811.488281 811.488281 C 726.671875 896.308594 609.496094 948.769531 480.0625 948.769531 C 350.636719 948.769531 233.449219 896.308594 148.632812 811.488281 C 63.808594 726.664062 11.347656 609.488281 11.347656 480.054688 C 11.347656 350.621094 63.808594 233.445312 148.632812 148.625 C 233.449219 63.808594 350.636719 11.339844 480.0625 11.339844 " fill-opacity="1" fill-rule="evenodd"/></g></svg>